<svg width="557" height="374" viewBox="0 0 557 374" fill="none" xmlns="http://www.w3.org/2000/svg">
<g clip-path="url(#clip0_258_68)">
<g opacity="0.2">
<path d="M192.814 343.065C193.093 344.212 193.465 345.334 193.926 346.421C201.081 343.61 208.316 340.916 215.629 338.339C215.567 338.035 215.506 337.716 215.428 337.402C214.692 334.163 213.119 331.174 210.867 328.733C207.943 325.644 204.175 324.151 200.51 325.063C196.845 325.974 194.183 329.093 192.968 333.196C192.06 336.416 192.007 339.818 192.814 343.065Z" fill="#3F3D56"/>
<path d="M203.095 336.924C209.377 335.521 212.948 327.57 211.071 319.165C209.193 310.761 202.579 305.085 196.297 306.488C190.015 307.891 186.444 315.841 188.321 324.246C190.199 332.651 196.813 338.327 203.095 336.924Z" fill="#3F3D56"/>
<path d="M198.687 318.383C204.969 316.98 208.539 309.029 206.662 300.625C204.785 292.22 198.171 286.544 191.889 287.947C185.607 289.35 182.036 297.301 183.913 305.705C185.79 314.11 192.405 319.786 198.687 318.383Z" fill="#3F3D56"/>
<path d="M194.269 299.854C200.551 298.451 204.122 290.5 202.245 282.095C200.368 273.691 193.754 268.015 187.472 269.418C181.19 270.821 177.619 278.771 179.496 287.176C181.373 295.581 187.987 301.257 194.269 299.854Z" fill="#3F3D56"/>
<path d="M189.852 281.319C196.134 279.916 199.705 271.965 197.828 263.561C195.951 255.156 189.336 249.48 183.054 250.883C176.772 252.286 173.202 260.237 175.079 268.642C176.956 277.046 183.57 282.722 189.852 281.319Z" fill="#3F3D56"/>
<path d="M198.574 128.666C199.645 126.263 200.55 123.79 201.282 121.263L170.395 123.693L202.589 115.904C204.128 107.808 203.933 99.4778 202.018 91.4623C200.339 84.3663 197.329 77.6532 193.148 71.679L155.466 105.372L188.088 65.4913C174.77 51.2728 154.627 44.5085 134.607 49.5329C104.692 57.0127 86.3608 87.9206 93.6604 118.566C96.5621 130.944 103.518 141.997 113.423 149.968C111.759 153.709 110.494 157.616 109.65 161.623L153.108 172.505L108.62 168.65C108.088 174.861 108.554 181.118 110 187.182C112.906 199.559 119.864 210.611 129.768 218.584C124.563 230.27 123.361 243.348 126.349 255.788C133.649 286.433 163.816 305.207 193.73 297.732C223.644 290.258 241.976 259.35 234.676 228.705C231.769 216.327 224.812 205.275 214.908 197.303C220.113 185.616 221.315 172.538 218.326 160.099C215.433 147.711 208.48 136.647 198.574 128.666Z" fill="#6C63FF"/>
<path opacity="0.1" d="M110.01 187.161C112.917 199.539 119.874 210.591 129.778 218.563C124.573 230.25 123.372 243.328 126.36 255.767C133.659 286.412 163.826 305.187 193.74 297.712C223.654 290.237 241.986 259.329 234.686 228.684C231.78 216.307 224.822 205.255 214.919 197.282C219.933 186.029 108.527 180.948 110.01 187.161Z" fill="black"/>
</g>
<g opacity="0.2">
<path d="M331.647 337.407C331.459 338.747 331.385 340.101 331.425 341.453C340.4 341.597 349.409 341.9 358.452 342.359C358.514 342.004 358.575 341.644 358.627 341.278C359.21 337.504 358.774 333.642 357.366 330.092C355.502 325.552 352.027 322.303 347.677 321.675C343.327 321.047 339.085 323.189 336.022 327.008C333.664 330.023 332.153 333.613 331.647 337.407Z" fill="#3F3D56"/>
<path d="M361.75 319.711C363.152 309.957 358.248 301.182 350.796 300.111C343.344 299.039 336.166 306.078 334.764 315.832C333.362 325.586 338.267 334.361 345.718 335.433C353.17 336.504 360.348 329.465 361.75 319.711Z" fill="#3F3D56"/>
<path d="M364.851 298.124C366.253 288.37 361.349 279.594 353.897 278.523C346.445 277.452 339.268 284.491 337.866 294.245C336.464 303.999 341.368 312.774 348.82 313.845C356.272 314.916 363.449 307.878 364.851 298.124Z" fill="#3F3D56"/>
<path d="M367.952 276.541C369.354 266.788 364.45 258.012 356.998 256.941C349.546 255.87 342.368 262.908 340.966 272.662C339.564 282.416 344.468 291.192 351.92 292.263C359.372 293.334 366.55 286.295 367.952 276.541Z" fill="#3F3D56"/>
<path d="M371.058 254.955C372.46 245.201 367.556 236.425 360.104 235.354C352.652 234.283 345.475 241.322 344.073 251.076C342.671 260.83 347.575 269.605 355.027 270.676C362.479 271.747 369.656 264.709 371.058 254.955Z" fill="#3F3D56"/>
<path d="M429.281 112.543C431.464 110.457 433.497 108.221 435.366 105.851L400.757 94.9783L439.052 100.77C443.879 93.2957 447.13 84.9158 448.607 76.1423C450.085 67.3689 449.757 58.3863 447.644 49.7439L392.376 69.0175L444.823 40.9616C441.482 32.6431 436.465 25.1016 430.083 18.8069C423.7 12.5122 416.09 7.5992 407.726 4.3739C399.363 1.1486 390.424 -0.31986 381.468 0.0600007C372.512 0.439861 363.73 2.65991 355.67 6.58183C347.609 10.5037 340.442 16.0435 334.616 22.856C328.79 29.6685 324.429 37.6078 321.805 46.1793C319.18 54.7507 318.35 63.7707 319.364 72.6773C320.378 81.584 323.215 90.1863 327.698 97.9486C324.308 101.188 321.275 104.783 318.654 108.672L361.232 139.188L314.535 115.673C309.623 125.361 307.204 136.12 307.497 146.978C307.79 157.837 310.786 168.45 316.213 177.859C307.346 186.313 301.036 197.092 298.006 208.964C294.976 220.835 295.347 233.319 299.078 244.989C302.808 256.659 309.748 267.044 319.102 274.956C328.456 282.869 339.849 287.989 351.976 289.732C364.103 291.475 376.476 289.77 387.68 284.812C398.884 279.855 408.467 271.845 415.333 261.697C422.199 251.55 426.072 239.676 426.507 227.432C426.943 215.187 423.924 203.068 417.796 192.458C428.394 182.354 435.288 168.982 437.371 154.488C439.454 139.995 436.605 125.222 429.281 112.543Z" fill="#6C63FF"/>
<path opacity="0.1" d="M308.126 135.914C306.021 150.408 308.871 165.187 316.213 177.859C307.346 186.313 301.036 197.092 298.006 208.964C294.976 220.835 295.347 233.319 299.078 244.989C302.808 256.659 309.747 267.044 319.102 274.956C328.456 282.869 339.848 287.989 351.976 289.732C364.103 291.475 376.476 289.77 387.68 284.812C398.884 279.855 408.467 271.845 415.333 261.697C422.199 251.55 426.071 239.676 426.507 227.432C426.943 215.187 423.924 203.068 417.796 192.458C428.04 182.703 309.171 128.661 308.126 135.914Z" fill="black"/>
</g>
<path opacity="0.1" d="M278.5 373.221C432.311 373.221 557 366.076 557 357.262C557 348.449 432.311 341.304 278.5 341.304C124.689 341.304 0 348.449 0 357.262C0 366.076 124.689 373.221 278.5 373.221Z" fill="#6C63FF"/>
<path d="M460.58 350.833C467.773 350.833 473.604 349.71 473.604 348.326C473.604 346.941 467.773 345.819 460.58 345.819C453.387 345.819 447.556 346.941 447.556 348.326C447.556 349.71 453.387 350.833 460.58 350.833Z" fill="#6C63FF"/>
<path d="M460.364 349.252C461.203 349.252 461.883 348.363 461.883 347.265C461.883 346.168 461.203 345.278 460.364 345.278C459.525 345.278 458.845 346.168 458.845 347.265C458.845 348.363 459.525 349.252 460.364 349.252Z" fill="#3F3D56"/>
<path d="M460.364 346.823C461.203 346.823 461.883 345.933 461.883 344.835C461.883 343.738 461.203 342.848 460.364 342.848C459.525 342.848 458.845 343.738 458.845 344.835C458.845 345.933 459.525 346.823 460.364 346.823Z" fill="#3F3D56"/>
<path d="M460.364 344.398C461.203 344.398 461.883 343.508 461.883 342.411C461.883 341.313 461.203 340.424 460.364 340.424C459.525 340.424 458.845 341.313 458.845 342.411C458.845 343.508 459.525 344.398 460.364 344.398Z" fill="#3F3D56"/>
<path d="M460.364 341.973C461.203 341.973 461.883 341.084 461.883 339.986C461.883 338.889 461.203 337.999 460.364 337.999C459.525 337.999 458.845 338.889 458.845 339.986C458.845 341.084 459.525 341.973 460.364 341.973Z" fill="#3F3D56"/>
<path d="M460.364 339.543C461.203 339.543 461.883 338.654 461.883 337.556C461.883 336.459 461.203 335.569 460.364 335.569C459.525 335.569 458.845 336.459 458.845 337.556C458.845 338.654 459.525 339.543 460.364 339.543Z" fill="#3F3D56"/>
<path d="M460.364 337.119C461.203 337.119 461.883 336.229 461.883 335.132C461.883 334.034 461.203 333.145 460.364 333.145C459.525 333.145 458.845 334.034 458.845 335.132C458.845 336.229 459.525 337.119 460.364 337.119Z" fill="#3F3D56"/>
<path d="M460.364 334.694C461.203 334.694 461.883 333.805 461.883 332.707C461.883 331.61 461.203 330.72 460.364 330.72C459.525 330.72 458.845 331.61 458.845 332.707C458.845 333.805 459.525 334.694 460.364 334.694Z" fill="#3F3D56"/>
<path d="M466.037 316.105C466.246 315.841 466.435 315.562 466.603 315.271L462.619 314.617L466.928 314.648C467.34 313.749 467.565 312.774 467.589 311.785C467.613 310.796 467.435 309.812 467.067 308.893L461.286 311.894L466.619 307.972C466.121 307.103 465.45 306.347 464.646 305.751C463.843 305.154 462.925 304.73 461.951 304.505C460.976 304.279 459.965 304.257 458.981 304.44C457.998 304.624 457.062 305.008 456.234 305.569C455.406 306.131 454.702 306.857 454.168 307.703C453.633 308.549 453.279 309.496 453.128 310.485C452.976 311.474 453.03 312.484 453.287 313.451C453.544 314.418 453.997 315.321 454.619 316.105C454.297 316.516 454.019 316.959 453.79 317.428L458.938 320.115L453.425 318.262C453.038 319.409 452.945 320.635 453.154 321.827C453.363 323.019 453.866 324.14 454.619 325.088C453.776 326.16 453.252 327.447 453.106 328.802C452.96 330.157 453.199 331.526 453.794 332.752C454.39 333.979 455.318 335.013 456.474 335.736C457.629 336.459 458.965 336.843 460.328 336.843C461.691 336.843 463.027 336.459 464.182 335.736C465.338 335.013 466.266 333.979 466.862 332.752C467.457 331.526 467.696 330.157 467.55 328.802C467.404 327.447 466.88 326.16 466.037 325.088C467.044 323.809 467.592 322.228 467.592 320.599C467.592 318.971 467.044 317.39 466.037 316.11V316.105Z" fill="#6C63FF"/>
<path opacity="0.1" d="M453.064 320.594C453.06 322.222 453.604 323.803 454.609 325.083C453.766 326.154 453.242 327.441 453.096 328.797C452.95 330.152 453.189 331.521 453.784 332.747C454.38 333.974 455.308 335.007 456.464 335.731C457.619 336.454 458.955 336.838 460.318 336.838C461.681 336.838 463.017 336.454 464.172 335.731C465.328 335.007 466.256 333.974 466.852 332.747C467.447 331.521 467.686 330.152 467.54 328.797C467.394 327.441 466.87 326.154 466.027 325.083C467.01 323.848 453.064 319.781 453.064 320.594Z" fill="black"/>
<path d="M161.489 370.997C171.098 370.997 178.889 369.499 178.889 367.651C178.889 365.803 171.098 364.305 161.489 364.305C151.879 364.305 144.089 365.803 144.089 367.651C144.089 369.499 151.879 370.997 161.489 370.997Z" fill="#6C63FF"/>
<path d="M161.196 368.881C162.316 368.881 163.224 367.694 163.224 366.23C163.224 364.766 162.316 363.579 161.196 363.579C160.075 363.579 159.167 364.766 159.167 366.23C159.167 367.694 160.075 368.881 161.196 368.881Z" fill="#3F3D56"/>
<path d="M161.196 365.638C162.316 365.638 163.224 364.451 163.224 362.987C163.224 361.523 162.316 360.336 161.196 360.336C160.075 360.336 159.167 361.523 159.167 362.987C159.167 364.451 160.075 365.638 161.196 365.638Z" fill="#3F3D56"/>
<path d="M161.196 362.395C162.316 362.395 163.224 361.208 163.224 359.744C163.224 358.28 162.316 357.093 161.196 357.093C160.075 357.093 159.167 358.28 159.167 359.744C159.167 361.208 160.075 362.395 161.196 362.395Z" fill="#3F3D56"/>
<path d="M161.196 359.157C162.316 359.157 163.224 357.97 163.224 356.506C163.224 355.042 162.316 353.855 161.196 353.855C160.075 353.855 159.167 355.042 159.167 356.506C159.167 357.97 160.075 359.157 161.196 359.157Z" fill="#3F3D56"/>
<path d="M161.196 355.914C162.316 355.914 163.224 354.727 163.224 353.263C163.224 351.798 162.316 350.611 161.196 350.611C160.075 350.611 159.167 351.798 159.167 353.263C159.167 354.727 160.075 355.914 161.196 355.914Z" fill="#3F3D56"/>
<path d="M161.196 352.671C162.316 352.671 163.224 351.484 163.224 350.019C163.224 348.555 162.316 347.368 161.196 347.368C160.075 347.368 159.167 348.555 159.167 350.019C159.167 351.484 160.075 352.671 161.196 352.671Z" fill="#3F3D56"/>
<path d="M161.196 349.433C162.316 349.433 163.224 348.246 163.224 346.781C163.224 345.317 162.316 344.13 161.196 344.13C160.075 344.13 159.167 345.317 159.167 346.781C159.167 348.246 160.075 349.433 161.196 349.433Z" fill="#3F3D56"/>
<path d="M168.783 324.599C169.058 324.245 169.309 323.874 169.535 323.487L164.217 322.612L169.973 322.658C170.526 321.457 170.829 320.155 170.86 318.832C170.892 317.509 170.653 316.194 170.158 314.968L162.436 318.973L169.556 313.763C168.885 312.615 167.987 311.617 166.915 310.831C165.843 310.045 164.622 309.488 163.325 309.193C162.029 308.899 160.687 308.874 159.381 309.119C158.074 309.365 156.833 309.877 155.732 310.622C154.632 311.368 153.697 312.332 152.984 313.453C152.272 314.575 151.797 315.832 151.59 317.145C151.383 318.458 151.448 319.799 151.781 321.086C152.114 322.372 152.708 323.577 153.525 324.625C153.095 325.175 152.724 325.768 152.418 326.396L159.332 329.999L151.96 327.528C151.442 329.056 151.311 330.689 151.581 332.279C151.85 333.87 152.511 335.369 153.505 336.64C152.379 338.072 151.68 339.791 151.485 341.601C151.291 343.412 151.61 345.24 152.406 346.878C153.202 348.515 154.442 349.896 155.985 350.862C157.529 351.828 159.313 352.34 161.134 352.34C162.954 352.34 164.738 351.828 166.282 350.862C167.825 349.896 169.066 348.515 169.862 346.878C170.657 345.24 170.976 343.412 170.782 341.601C170.588 339.791 169.888 338.072 168.763 336.64C170.107 334.929 170.837 332.816 170.837 330.64C170.837 328.464 170.107 326.352 168.763 324.64L168.783 324.599Z" fill="#6C63FF"/>
<path opacity="0.1" d="M151.45 330.596C151.444 332.772 152.169 334.886 153.509 336.599C152.384 338.03 151.685 339.75 151.49 341.56C151.296 343.37 151.615 345.199 152.411 346.837C153.206 348.474 154.447 349.855 155.99 350.821C157.534 351.787 159.318 352.299 161.139 352.299C162.959 352.299 164.743 351.787 166.287 350.821C167.83 349.855 169.071 348.474 169.866 346.837C170.662 345.199 170.981 343.37 170.787 341.56C170.593 339.75 169.893 338.03 168.768 336.599C170.08 334.946 151.45 329.51 151.45 330.596Z" fill="black"/>
<path d="M253.1 220.293C251.788 213.426 250.321 206.543 250.079 199.557C249.934 195.439 250.223 191.249 249.692 187.141C249.43 185.123 248.972 183.141 248.519 181.159L246.696 173.226C246.903 171.705 246.844 170.16 246.521 168.66C246.339 167.869 246.096 167.092 245.796 166.338C247.497 163.944 248.899 161.351 249.971 158.616C250.454 157.381 250.871 156.068 250.681 154.761C250.31 152.254 247.88 150.601 245.621 149.366C244.251 148.619 242.81 147.898 241.245 147.78C240.15 147.736 239.061 147.945 238.061 148.392C237.06 148.838 236.177 149.51 235.479 150.354C235.099 148.324 235.226 146.232 235.85 144.264C234.506 143.662 233.152 143.095 231.788 142.545C231.591 140.766 231.522 138.975 231.582 137.186C231.613 135.039 231.649 132.872 231.773 130.72C235.434 129.384 238.598 126.96 240.842 123.773C243.085 120.587 244.3 116.79 244.323 112.893C244.323 112.672 244.323 112.455 244.323 112.239C245.321 110.446 245.952 108.472 246.18 106.432C246.408 104.392 246.228 102.327 245.651 100.358C244.143 95.21 240.2 90.9681 235.448 88.3478C230.697 85.7276 225.189 84.6208 219.737 84.4251C217.907 84.3181 216.072 84.4339 214.27 84.7701C212.342 85.2446 210.473 85.9354 208.7 86.8292C205.977 88.0853 203.233 89.4598 201.194 91.627C197.658 95.4004 196.865 100.945 197.251 106.041C197.766 112.733 200 119.209 202.584 125.438C203.444 127.497 204.36 129.587 205.776 131.343C206.872 132.697 208.777 132.779 210.291 131.832C210.171 133.476 210.133 135.126 210.177 136.774C207.382 136.676 204.659 137.134 202.414 138.709C201.385 139.446 200.407 140.604 200.633 141.85C201.321 141.868 201.98 142.128 202.494 142.585C203.008 143.042 203.345 143.666 203.444 144.346C203.557 145.443 203.006 146.488 202.471 147.435C202.239 147.857 202.008 148.285 201.771 148.707C199.557 151.075 197.287 154.04 197.086 156.979C196.725 157.014 196.366 157.067 196.01 157.139C194.003 157.51 192.005 158.194 190.034 158.709L175.764 162.467L172.238 163.445L166.575 164.938C162.971 165.885 159.301 166.858 156.104 168.763C152.907 170.667 150.194 173.658 149.551 177.262C149.232 179.053 149.427 180.917 149.036 182.693C149.036 182.775 149.005 182.853 148.985 182.93C148.658 184.054 148.218 185.142 147.672 186.178C144.475 192.917 142.2 200.263 142.627 207.681C142.89 212.237 144.171 216.679 145.417 221.065C146.725 225.551 148.015 230.036 149.288 234.522C150.128 237.733 151.193 240.881 152.475 243.942C154.671 248.847 157.929 253.202 162.014 256.694C163.16 257.722 164.442 258.588 165.823 259.268C167.93 260.178 170.229 260.552 172.516 260.354C173.133 260.313 173.741 260.246 174.343 260.148C178.765 259.448 182.889 257.317 186.672 254.918C188.254 253.915 189.799 252.86 191.305 251.752C191.497 253.481 191.841 255.19 192.335 256.858C192.67 258.006 193.081 259.185 192.947 260.374C192.762 262.032 191.558 263.391 190.935 264.946C189.612 268.23 190.971 271.89 191.192 275.411C191.403 278.711 190.6 281.985 189.957 285.233C188.882 290.651 188.247 296.146 188.057 301.665C188.051 303.755 187.914 305.843 187.645 307.915C187.166 310.839 186.044 313.66 185.849 316.615C185.55 321.217 187.537 325.721 187.357 330.329C187.146 335.739 183.97 340.995 185.076 346.287C185.215 346.951 185.591 347.718 186.199 347.888L185.9 348.161C184.989 349.005 184.103 350.565 185.138 351.25C185.376 351.391 185.641 351.482 185.915 351.518C187.516 351.852 189.128 352.156 190.739 352.439C190.704 353.927 190.891 355.413 191.295 356.846C191.588 357.057 191.887 357.247 192.186 357.427C191.959 358.035 191.975 358.622 192.51 358.972C192.748 359.113 193.013 359.204 193.287 359.239C206.548 361.975 220.091 363.099 233.621 362.585C236.04 362.493 238.568 362.318 240.632 361.082C242.697 359.847 244.092 357.216 243.108 355.049C242.238 353.134 239.963 352.305 237.919 351.667L235.52 350.925C235.828 350.381 236.007 349.773 236.044 349.149C236.082 348.524 235.977 347.9 235.737 347.322C234.867 345.407 232.591 344.578 230.548 343.94L225.024 342.226C224.297 342.053 223.613 341.733 223.016 341.284C222.621 340.89 222.256 340.467 221.925 340.017C221.128 339.106 220.081 338.449 218.913 338.128C218.851 336.957 218.877 335.784 218.991 334.617L220.535 315.977C220.88 311.755 221.22 307.452 220.236 303.328C219.84 301.655 219.207 299.941 219.593 298.263C220.195 295.524 223.078 294 225.044 291.967C228.01 288.878 228.931 284.487 229.611 280.307C232.425 263.057 233.309 245.548 232.246 228.102C238.426 226.36 244.786 225.338 251.201 225.055C252.292 225.008 252.828 224.494 253.167 223.474C253.507 222.455 253.301 221.348 253.1 220.293ZM222.29 221.204C222.326 221.024 222.368 220.844 222.398 220.664L222.826 221.209L222.29 221.204Z" fill="url(#paint0_linear_258_68)"/>
<path d="M212.252 126.715C212.118 128.506 211.485 130.226 211.254 132.012C210.991 133.979 211.223 135.981 211.094 137.963C210.965 139.945 210.394 142.03 208.885 143.322C217.652 144.081 226.287 145.949 234.584 148.882C232.077 145.793 232.01 141.479 232.072 137.515C232.154 131.652 232.257 125.675 234.172 120.141C228.46 118.864 222.546 118.787 216.803 119.915C215.557 120.162 211.784 120.007 211.223 121.171C210.816 122.025 212.345 125.418 212.252 126.715Z" fill="#A1616A"/>
<path opacity="0.1" d="M212.252 126.715C212.118 128.506 211.485 130.226 211.254 132.012C210.991 133.979 211.223 135.981 211.094 137.963C210.965 139.945 210.394 142.03 208.885 143.322C217.652 144.081 226.287 145.949 234.584 148.882C232.077 145.793 232.01 141.479 232.072 137.515C232.154 131.652 232.257 125.675 234.172 120.141C228.46 118.864 222.546 118.787 216.803 119.915C215.557 120.162 211.784 120.007 211.223 121.171C210.816 122.025 212.345 125.418 212.252 126.715Z" fill="black"/>
<path d="M222.63 340.043C222.939 340.499 223.284 340.931 223.66 341.335C224.239 341.784 224.908 342.105 225.621 342.277L231.016 343.991C233.018 344.63 235.242 345.453 236.092 347.368C237.049 349.53 235.685 352.161 233.667 353.391C231.649 354.622 229.178 354.802 226.815 354.894C213.585 355.404 200.343 354.282 187.388 351.553C187.12 351.515 186.863 351.424 186.631 351.286C185.601 350.591 186.482 349.036 187.372 348.197C190.847 344.902 194.626 341.448 199.356 340.686C201.843 340.28 204.34 340.444 206.811 339.852C208.587 339.425 210.265 338.689 212.036 338.251C215.335 337.443 220.272 337.155 222.63 340.043Z" fill="#46455B"/>
<path opacity="0.1" d="M222.63 340.043C222.939 340.499 223.284 340.931 223.66 341.335C224.239 341.784 224.908 342.105 225.621 342.277L231.016 343.991C233.018 344.63 235.242 345.453 236.092 347.368C237.049 349.53 235.685 352.161 233.667 353.391C231.649 354.622 229.178 354.802 226.815 354.894C213.585 355.404 200.343 354.282 187.388 351.553C187.12 351.515 186.863 351.424 186.631 351.286C185.601 350.591 186.482 349.036 187.372 348.197C190.847 344.902 194.626 341.448 199.356 340.686C201.843 340.28 204.34 340.444 206.811 339.852C208.587 339.425 210.265 338.689 212.036 338.251C215.335 337.443 220.272 337.155 222.63 340.043Z" fill="black"/>
<path d="M195.542 223.608C192.88 230.633 192.716 238.36 195.079 245.492C193.282 245.296 192.505 247.726 192.551 249.538C192.615 252.061 192.997 254.565 193.689 256.992C194.018 258.145 194.42 259.319 194.291 260.503C194.106 262.161 192.932 263.52 192.319 265.069C191.032 268.348 192.355 272.003 192.577 275.519C192.783 278.819 191.995 282.088 191.362 285.331C190.313 290.743 189.693 296.228 189.509 301.738C189.505 303.825 189.369 305.911 189.102 307.982C188.639 310.906 187.557 313.722 187.352 316.672C187.058 321.263 188.999 325.768 188.824 330.37C188.618 335.77 185.509 341.021 186.595 346.328C186.749 347.075 187.166 347.955 187.933 347.965C195.696 348.063 202.95 345.906 210.63 347.034C211.413 329.263 212.175 311.41 215.675 293.964C218.764 278.433 223.999 263.077 223.51 247.242C223.227 238.187 221.075 229.307 219.768 220.339C211.56 218.517 202.973 219.676 195.542 223.608Z" fill="#BBBDC8"/>
<path opacity="0.1" d="M195.542 223.608C192.88 230.633 192.716 238.36 195.079 245.492C193.282 245.296 192.505 247.726 192.551 249.538C192.615 252.061 192.997 254.565 193.689 256.992C194.018 258.145 194.42 259.319 194.291 260.503C194.106 262.161 192.932 263.52 192.319 265.069C191.032 268.348 192.355 272.003 192.577 275.519C192.783 278.819 191.995 282.088 191.362 285.331C190.313 290.743 189.693 296.228 189.509 301.738C189.505 303.825 189.369 305.911 189.102 307.982C188.639 310.906 187.557 313.722 187.352 316.672C187.058 321.263 188.999 325.768 188.824 330.37C188.618 335.77 185.509 341.021 186.595 346.328C186.749 347.075 187.166 347.955 187.933 347.965C195.696 348.063 202.95 345.906 210.63 347.034C211.413 329.263 212.175 311.41 215.675 293.964C218.764 278.433 223.999 263.077 223.51 247.242C223.227 238.187 221.075 229.307 219.768 220.339C211.56 218.517 202.973 219.676 195.542 223.608Z" fill="black"/>
<path d="M229.837 347.765C230.146 348.221 230.491 348.653 230.867 349.057C231.446 349.506 232.115 349.827 232.828 349.999L238.223 351.713C240.225 352.351 242.449 353.175 243.299 355.09C244.256 357.252 242.892 359.883 240.874 361.113C238.856 362.343 236.385 362.524 234.022 362.616C220.792 363.126 207.55 362.004 194.595 359.275C194.327 359.237 194.07 359.146 193.838 359.008C192.808 358.313 193.689 356.758 194.579 355.919C198.054 352.624 201.833 349.17 206.563 348.408C209.05 348.001 211.547 348.166 214.018 347.574C215.794 347.147 217.472 346.411 219.243 345.973C222.543 345.165 227.479 344.877 229.837 347.765Z" fill="#46455B"/>
<path d="M198.219 224.118C196.232 226.692 195.645 230.089 195.913 233.312C196.18 236.534 197.267 239.628 198.332 242.681C196.917 243.983 197.21 246.228 197.395 248.143C198.07 255.257 195.599 262.356 195.959 269.491C196.108 272.492 196.762 275.452 196.917 278.454C197.086 281.733 196.67 285.012 196.278 288.271C193.779 309.132 192.404 330.112 192.16 351.121C192.16 353.057 192.129 355.023 192.675 356.876C196.417 359.63 201.117 360.001 205.647 358.972C210.178 357.942 214.311 355.646 218.373 353.381C220.598 352.229 222.708 350.868 224.674 349.314C225.275 348.889 225.72 348.277 225.94 347.574C226.373 345.515 223.511 344.583 221.868 343.25C219.48 341.309 219.516 337.716 219.763 334.648L221.256 316.033C221.596 311.817 221.925 307.519 220.967 303.4C220.576 301.732 219.974 300.018 220.334 298.34C220.921 295.612 223.742 294.088 225.662 292.054C228.566 288.966 229.461 284.585 230.131 280.415C233.285 260.633 233.956 240.535 232.128 220.586C228.344 221.899 223.861 221.184 219.871 221.492C215.881 221.801 211.918 223.135 207.876 223.243C204.51 223.32 200.288 221.462 198.219 224.118Z" fill="#BBBDC8"/>
<path d="M225.477 132.3C235.996 132.3 244.524 123.773 244.524 113.253C244.524 102.734 235.996 94.2061 225.477 94.2061C214.957 94.2061 206.43 102.734 206.43 113.253C206.43 123.773 214.957 132.3 225.477 132.3Z" fill="#A1616A"/>
<path d="M236.241 144.583C230.138 141.78 223.773 139.583 217.24 138.025C212.638 136.928 207.382 136.269 203.537 139.023C202.507 139.76 201.575 140.918 201.797 142.164C202.475 142.186 203.124 142.449 203.626 142.905C204.129 143.362 204.453 143.982 204.54 144.655C204.654 145.747 204.118 146.792 203.593 147.744L199.151 155.981C198.299 157.464 197.568 159.014 196.963 160.614C196.067 163.229 195.871 166.029 195.681 168.789L195.166 176.263C194.847 180.974 194.523 185.704 194.95 190.404C195.269 193.951 196.01 197.514 195.506 201.04C195.099 203.876 193.9 206.538 193.225 209.328C191.959 214.579 192.536 220.334 190.08 225.153C191.077 224.692 192.203 224.59 193.267 224.864C200.721 226.239 206.584 232.123 213.822 234.372C215.65 231.706 218.126 229.739 220.169 227.258C221.689 225.398 222.696 223.172 223.088 220.803C224.633 222.862 225.945 224.468 226.867 226.857C227.031 227.412 227.312 227.926 227.69 228.365C228.663 229.312 230.264 228.947 231.567 228.55C237.952 226.624 244.553 225.505 251.216 225.22C252.287 225.173 252.807 224.658 253.142 223.639C253.476 222.62 253.291 221.518 253.09 220.468C251.808 213.606 250.377 206.733 250.14 199.758C249.996 195.64 250.279 191.465 249.759 187.357C249.502 185.344 249.054 183.362 248.611 181.385L244.936 165.051C244.73 164.14 243.752 163.543 243.335 162.704C241.646 159.286 238.419 156.815 236.751 153.386C235.491 150.618 235.309 147.479 236.241 144.583Z" fill="#46455B"/>
<path d="M209.518 120.877C209.496 120.611 209.559 120.344 209.699 120.115C209.902 119.901 210.158 119.744 210.44 119.657C211.207 119.293 211.835 118.688 212.228 117.935C212.621 117.181 212.758 116.32 212.617 115.482L214.419 115.106L214.476 108.831C217.153 107.349 220.803 108.471 223.32 106.726C224.736 105.737 225.461 104.059 226.326 102.566C227.191 101.073 228.478 99.5702 230.197 99.4466C229.606 100.951 229.353 102.566 229.455 104.179C229.557 105.792 230.013 107.362 230.789 108.78C232.592 107.867 234.097 106.46 235.129 104.723L236.025 109.871C236.043 110.188 236.179 110.488 236.406 110.71C236.874 111.055 237.507 110.623 237.919 110.195L240.251 107.905C241.233 110.367 241.905 112.942 242.254 115.57C246.084 111.853 247.273 105.881 245.801 100.754C244.328 95.6269 240.473 91.3799 235.829 88.7596C231.186 86.1394 225.801 85.0377 220.473 84.8421C218.685 84.7374 216.89 84.8533 215.13 85.187C213.241 85.6621 211.414 86.353 209.683 87.2462C207.022 88.4971 204.335 89.8716 202.347 92.0337C198.888 95.8019 198.111 101.341 198.492 106.448C199.006 113.14 201.179 119.601 203.706 125.819C204.546 127.878 205.441 129.963 206.826 131.719C208.911 134.36 214.033 132.167 213.379 126.947C212.926 123.22 209.518 124.656 209.518 120.877Z" fill="#3F3D56"/>
<path d="M216.725 222.852C210.301 235.978 200.436 247.116 188.18 255.077C184.479 257.471 180.459 259.602 176.129 260.302C175.537 260.4 174.945 260.467 174.343 260.508C172.11 260.693 169.867 260.312 167.821 259.401C166.466 258.719 165.211 257.853 164.094 256.827C160.088 253.321 156.904 248.974 154.771 244.097C153.517 241.036 152.476 237.891 151.656 234.686C150.393 230.204 149.134 225.721 147.878 221.235C146.647 216.849 145.407 212.412 145.149 207.851C144.732 200.443 146.956 193.107 150.081 186.379C150.614 185.343 151.043 184.256 151.363 183.136C151.363 183.058 151.399 182.981 151.414 182.899C151.785 181.123 151.595 179.264 151.929 177.473C152.557 173.869 155.213 170.884 158.333 168.984C161.453 167.085 165.025 166.112 168.572 165.164L174.096 163.677L177.524 162.755L191.47 159.002C193.4 158.488 195.351 157.803 197.313 157.458C199.501 157.046 199.485 157.262 199.655 159.404C199.969 163.285 199.866 167.1 200.685 170.945C201.462 174.616 202.831 178.152 203.861 181.756C206.461 190.852 206.893 200.427 208.942 209.668C209.41 211.773 210.059 214.018 211.753 215.33C213.693 216.875 216.962 217.256 217.477 219.675C217.667 220.751 217.189 221.853 216.725 222.852Z" fill="#6C63FF"/>
<path opacity="0.1" d="M176.129 260.282C175.537 260.379 174.945 260.446 174.343 260.488C172.112 260.679 169.869 260.305 167.821 259.401C166.466 258.719 165.211 257.853 164.094 256.827C160.088 253.321 156.904 248.974 154.771 244.097C153.517 241.036 152.476 237.891 151.656 234.686C150.393 230.204 149.134 225.721 147.878 221.235C146.647 216.849 145.407 212.412 145.149 207.851C144.732 200.443 146.956 193.107 150.081 186.379C150.614 185.343 151.043 184.256 151.363 183.136C151.363 183.058 151.399 182.981 151.414 182.899C159.816 184.376 169.895 200.448 175.095 221.508C178.925 237.255 179.089 251.757 176.129 260.282Z" fill="black"/>
<path opacity="0.1" d="M191.316 204.87L189.91 205.112C188.464 201.313 187.022 197.508 185.329 193.812C184.449 191.882 183.496 189.977 182.755 187.985C179.975 180.335 180.449 171.259 175.296 164.958C174.928 164.49 174.508 164.066 174.045 163.692L177.473 162.771C180.475 167.518 182.593 172.769 183.723 178.271C184.279 180.958 184.593 183.707 185.499 186.291C186.269 188.251 187.151 190.166 188.14 192.026C190.096 196.036 191.568 200.417 191.316 204.87Z" fill="black"/>
<path d="M204.999 146.869C208.7 143.698 213.75 141.958 218.543 142.751C221.364 143.209 223.984 144.48 226.512 145.839C231.438 148.454 236.293 151.466 239.845 155.764C241.974 158.475 243.743 161.452 245.106 164.619C245.774 166.002 246.292 167.454 246.65 168.948C247.906 174.765 244.823 180.546 241.852 185.704L236.138 195.619C233.513 200.175 230.867 204.762 227.448 208.762C225.873 210.605 224.144 212.309 222.419 214.013L214.846 221.487C214.71 221.648 214.532 221.767 214.332 221.832C214.166 221.841 214.001 221.814 213.847 221.752C213.694 221.691 213.555 221.597 213.441 221.477L210.939 219.485C213.244 217.893 215.385 216.077 217.333 214.064C220.607 210.677 223.299 206.78 225.976 202.898L234.305 190.821C236.74 187.285 239.283 183.393 239.011 179.11C238.882 177.051 238.11 175.115 237.301 173.226C235.87 169.866 234.316 166.559 232.638 163.306C230.753 159.656 228.694 156.053 225.981 152.969C223.268 149.886 219.84 147.306 215.892 146.189C214.714 145.805 213.466 145.685 212.237 145.839C209.529 146.287 207.603 148.614 205.889 150.776L200.669 157.468C199.48 158.987 198.389 160.748 198.317 157.865C198.193 153.752 202.353 149.515 204.999 146.869Z" fill="#6C63FF"/>
<path d="M206.615 192.016C207.644 195.98 209.163 200.479 212.978 201.982C215.68 203.048 218.846 202.183 221.183 200.438C223.521 198.692 225.178 196.232 226.702 193.745C227.992 191.511 229.413 189.355 230.959 187.29C234.012 183.46 238.166 180.423 240.225 175.965C240.833 174.636 241.255 173.216 241.945 171.939C242.682 170.762 243.515 169.648 244.436 168.608C246.807 165.672 248.702 162.382 250.053 158.858C250.526 157.628 250.933 156.31 250.748 155.008C250.382 152.501 248.009 150.853 245.801 149.623C244.457 148.877 243.052 148.151 241.523 148.037C239.288 147.862 237.09 149.067 235.716 150.833C234.393 152.659 233.653 154.843 233.595 157.098C233.441 159.842 233.976 162.693 233.08 165.288C232.606 166.498 231.952 167.63 231.139 168.644C228.248 172.513 224.669 175.816 220.581 178.389C220.469 176.442 220.047 174.525 219.33 172.711C218.939 171.712 211.269 172.711 210.27 172.876C208.293 173.164 204.463 173.391 203.217 175.275C201.972 177.159 203.516 180.325 204.02 182.224L206.615 192.016Z" fill="#A1616A"/>
<path d="M206.43 148.758C205.29 149.7 204.23 150.733 203.259 151.847C200.973 154.601 199.856 158.184 199.568 161.751C199.279 165.319 199.768 168.902 200.381 172.428C200.937 175.592 201.594 178.734 202.353 181.854C202.564 179.501 204.468 177.555 206.677 176.706C208.885 175.857 211.31 175.949 213.662 176.294C216.69 176.743 219.644 177.596 222.445 178.832L223.531 163.61C223.76 161.556 223.748 159.483 223.495 157.432C223.153 155.529 222.409 153.721 221.314 152.128C220.219 150.535 218.797 149.193 217.142 148.192C213.014 145.68 210.136 145.52 206.43 148.758Z" fill="#46455B"/>
<path d="M400.906 222.831C400.418 218.7 399.216 214.685 397.354 210.965C396.216 208.7 394.832 206.533 394.116 204.108C393.534 202.136 393.421 200.062 392.958 198.059C392.495 196.057 391.676 194.142 391.017 192.186C386.358 178.286 389.859 163.079 388.356 148.511C387.795 143.137 386.147 137.242 381.488 134.442C378.719 132.779 375.393 132.522 372.135 132.383L370.647 132.316L368.258 132.197C364.799 132.028 361.329 131.899 357.963 132.625C353.844 133.526 348.964 136.424 347.667 140.63C346.956 140.264 346.241 139.94 345.582 139.636C342.93 138.46 340.15 137.596 337.299 137.062C339.745 136.446 342.107 135.533 344.331 134.344C349.479 131.348 350.673 122.597 351.723 116.743C352.774 110.89 351.816 104.842 350.071 99.1532C349.494 97.1347 348.709 95.1817 347.729 93.3258C346.374 90.8813 344.529 88.7424 342.31 87.0428C340.091 85.3432 337.546 84.1195 334.833 83.448C332.12 82.7765 329.297 82.6716 326.542 83.14C323.786 83.6084 321.157 84.64 318.818 86.1703C314.015 89.3156 309.552 93.8921 305.887 98.3141C305.372 98.9215 303.22 101.073 303.936 101.979C304.337 102.494 305.66 102.082 307.05 101.465C305.981 103.88 305.43 106.493 305.434 109.135C305.437 112.453 306.304 115.713 307.949 118.594C309.595 121.475 311.962 123.878 314.818 125.567L315.333 130.303V130.339C315.39 131.919 315.415 133.5 315.436 135.075C315.436 136.182 315.436 137.314 315.405 138.447C313.269 140.864 310.653 142.81 307.724 144.161C310.144 144.563 312.45 143.996 314.695 143.029C314.33 144.293 313.717 145.472 312.893 146.498C313.511 146.282 314.128 146.086 314.746 145.88C314.423 146.399 314.136 146.939 313.886 147.497C313.506 148.378 313.228 149.301 313.058 150.246C311.747 152.161 310.611 154.191 309.665 156.31C309.233 157.273 308.847 158.251 308.497 159.244V159.311C308.153 160.3 307.85 161.302 307.585 162.318C307.462 162.805 307.349 163.294 307.246 163.785C307.246 163.821 307.246 163.857 307.246 163.893C307.04 164.886 306.87 165.885 306.731 166.894C306.731 166.961 306.731 167.028 306.731 167.1C306.674 167.568 306.623 168.042 306.587 168.516C306.587 168.516 306.587 168.562 306.587 168.588C306.546 169.103 306.515 169.592 306.499 170.096C306.499 170.163 306.499 170.225 306.499 170.292C306.499 170.719 306.499 171.151 306.499 171.579V171.872C306.499 172.84 306.561 173.813 306.654 174.786C306.654 174.904 306.654 175.028 306.69 175.146C306.731 175.543 306.777 175.939 306.834 176.34C306.834 176.433 306.834 176.526 306.87 176.613C306.937 177.092 307.014 177.566 307.102 178.039C307.102 178.142 307.148 178.25 307.169 178.353C307.241 178.734 307.318 179.11 307.405 179.491L307.498 179.882C307.611 180.356 307.73 180.824 307.863 181.298C307.941 181.566 308.018 181.813 308.1 182.096C308.346 183.072 308.518 184.064 308.615 185.066L305.799 185.159C299.773 185.33 293.751 185.603 287.735 185.977C286.984 183.079 284.42 181.406 281.192 181.01C280.68 180.948 280.164 180.917 279.648 180.917C280.205 180.448 280.699 179.91 281.12 179.316C281.68 178.545 282.08 177.67 282.294 176.742C281.464 177.214 280.739 177.85 280.163 178.611C279.972 178.868 279.802 179.125 279.648 179.362V177.818C279.649 177.785 279.643 177.753 279.631 177.722C279.618 177.692 279.6 177.665 279.577 177.642C279.554 177.618 279.527 177.6 279.496 177.588C279.466 177.576 279.434 177.57 279.401 177.571H278.886C278.853 177.57 278.821 177.576 278.791 177.588C278.76 177.6 278.733 177.618 278.71 177.642C278.687 177.665 278.669 177.692 278.656 177.722C278.644 177.753 278.638 177.785 278.639 177.818V180.963H278.536H278.361C278.021 180.994 277.692 181.035 277.367 181.097C273.862 181.751 271.293 184 271.293 187.789C271.294 188.982 271.554 190.161 272.055 191.244C272.557 192.326 273.287 193.287 274.196 194.059C274.347 195.239 274.615 196.402 274.994 197.529C275.349 198.646 275.813 199.861 276.853 200.417C277.488 200.705 278.185 200.833 278.881 200.788C284.605 200.788 290.021 198.147 295.72 197.699C299.241 197.416 302.777 197.962 306.309 197.853C306.824 197.853 307.338 197.802 307.853 197.761C303.024 221.673 297.182 245.888 300.234 270.042C300.435 271.648 300.749 273.388 301.949 274.48C303.539 275.931 305.99 275.694 308.126 275.509C313.989 274.974 319.899 275.446 325.603 276.904C326.405 277.126 327.248 277.156 328.064 276.992C328.238 276.952 328.41 276.902 328.579 276.842L328.723 276.786C328.831 276.745 328.934 276.703 329.032 276.657L329.181 276.58L329.433 276.425C329.474 276.395 329.521 276.369 329.557 276.338C329.646 276.276 329.731 276.207 329.809 276.132L329.881 276.07C329.977 275.976 330.068 275.876 330.154 275.772L330.216 275.679C330.275 275.602 330.33 275.521 330.38 275.437C330.406 275.396 330.432 275.355 330.452 275.313C330.473 275.272 330.535 275.159 330.571 275.082C330.607 275.005 330.612 274.989 330.627 274.943C330.643 274.896 330.694 274.773 330.725 274.685C330.756 274.598 330.725 274.603 330.766 274.557C330.808 274.51 330.838 274.299 330.864 274.171V274.088C330.864 273.98 330.905 273.867 330.921 273.759C330.936 273.651 330.921 273.646 330.921 273.589C330.921 273.532 330.921 273.419 330.921 273.337V273.151C330.921 273.069 330.921 272.987 330.921 272.904V272.446C330.921 272.395 330.921 272.338 330.921 272.281C330.921 271.823 330.869 271.36 330.823 270.917C331.191 271.024 331.566 271.105 331.945 271.159C332.299 271.215 332.658 271.241 333.016 271.236H333.067C333.237 271.236 333.407 271.236 333.582 271.195C333.731 271.172 333.879 271.141 334.025 271.103H334.092C334.227 271.063 334.358 271.011 334.483 270.948L334.545 270.912C334.652 270.852 334.754 270.783 334.849 270.706L334.895 270.67C334.991 270.58 335.078 270.48 335.152 270.372L335.199 270.294C335.275 270.17 335.336 270.037 335.379 269.898C335.672 268.904 335.003 267.782 336.074 266.871C337.103 270.171 338.133 273.476 338.303 276.889C338.359 278.134 338.303 279.463 339.034 280.492C339.51 281.054 340.026 281.581 340.578 282.067C342.153 283.771 342.189 286.34 342.081 288.646C342.035 289.578 341.984 290.51 341.917 291.442C341.066 303.876 338.538 316.138 334.401 327.894C333.998 329.145 333.47 330.352 332.826 331.497C331.781 333.119 330.474 334.556 328.959 335.75C326.813 337.572 324.514 339.207 322.087 340.635C320.847 341.29 319.676 342.068 318.592 342.957C318.55 342.838 318.504 342.725 318.473 342.601C318.417 342.365 318.339 342.087 318.108 341.999C317.932 341.959 317.748 341.989 317.593 342.081C315.179 343.142 312.764 344.202 310.443 345.443C309.271 345.977 308.238 346.775 307.426 347.775C306.685 348.805 306.463 350.349 307.23 351.378C307.905 352.279 309.114 352.578 310.231 352.779C311.663 353.031 313.099 353.211 314.535 353.345C313.797 353.777 313.151 354.351 312.636 355.033C311.894 356.063 311.673 357.607 312.44 358.637C313.114 359.538 314.324 359.836 315.441 360.037C324.568 361.648 333.927 360.552 343.193 360.279C346.205 360.181 349.283 360.161 352.135 359.183C352.698 359.016 353.222 358.742 353.68 358.374C354.977 357.232 354.848 355.224 354.622 353.52L353.68 346.56C353.541 346.56 353.407 346.606 353.273 346.637C354.062 340.099 355.477 333.652 357.499 327.384C360.639 317.629 365.314 308.018 365.252 297.81C365.252 297.563 365.252 297.295 365.252 297.068C365.164 293.872 364.593 290.711 364.222 287.529C363.641 282.206 363.708 276.837 363.744 271.489C363.699 269.391 363.845 267.294 364.181 265.224C364.181 265.152 364.212 265.085 364.228 265.013L372.778 264.786C373.726 264.834 374.671 264.658 375.537 264.271C375.947 264.091 376.276 263.766 376.46 263.359C376.645 262.951 376.672 262.489 376.536 262.063C380.181 263.715 385.056 261.466 386.132 257.636C386.207 257.366 386.267 257.093 386.312 256.817C386.309 256.797 386.309 256.776 386.312 256.755C386.348 256.498 386.374 256.241 386.384 255.988C386.384 255.947 386.384 255.901 386.384 255.86C386.437 254.092 386.163 252.329 385.576 250.66C383.826 245.703 381.046 241.188 378.431 236.622C377.082 234.259 375.774 231.865 374.503 229.461L375.62 230.898C376.012 231.483 376.526 231.977 377.128 232.344C379.213 233.42 381.396 231.253 383.517 230.254C386.333 228.926 389.627 229.708 392.736 229.93C395.846 230.151 399.593 229.348 400.705 226.465C401.066 225.288 401.135 224.041 400.906 222.831ZM347.301 145.463C347.301 146.565 347.373 147.682 347.461 148.804C346.416 147.097 345.209 145.494 343.857 144.017L347.301 145.463Z" fill="url(#paint1_linear_258_68)"/>
<path d="M280.045 179.537C280.614 178.783 281.331 178.151 282.15 177.679C281.941 178.606 281.547 179.482 280.992 180.253C280.096 181.473 279.154 182.312 278.891 182.111C278.629 181.91 279.139 180.757 280.045 179.537Z" fill="#99D55C"/>
<path opacity="0.1" d="M280.158 179.63C280.574 179.069 281.099 178.598 281.702 178.245C281.545 178.931 281.253 179.579 280.842 180.15C280.173 181.056 279.473 181.694 279.298 181.535C279.123 181.375 279.488 180.536 280.158 179.63Z" fill="black"/>
<path d="M278.793 178.513H279.308C279.341 178.513 279.373 178.519 279.403 178.532C279.433 178.544 279.46 178.562 279.483 178.585C279.506 178.608 279.524 178.635 279.536 178.665C279.549 178.695 279.555 178.727 279.555 178.76V184.592H278.577V178.76C278.577 178.699 278.598 178.641 278.638 178.595C278.678 178.55 278.733 178.52 278.793 178.513Z" fill="#F6987E"/>
<path d="M287.766 188.711C287.766 190.895 286.898 192.99 285.354 194.535C283.809 196.08 281.714 196.947 279.53 196.947C277.345 196.947 275.25 196.08 273.705 194.535C272.161 192.99 271.293 190.895 271.293 188.711C271.293 184.937 273.831 182.703 277.295 182.049C278.032 181.913 278.78 181.846 279.53 181.849C280.046 181.848 280.562 181.879 281.074 181.941C284.883 182.415 287.766 184.69 287.766 188.711Z" fill="#FC4A4A"/>
<path opacity="0.1" d="M281.074 181.941C280.925 182.224 280.116 182.456 279.138 182.456C278.5 182.503 277.861 182.369 277.295 182.07C278.032 181.934 278.78 181.867 279.53 181.869C280.045 181.862 280.561 181.886 281.074 181.941Z" fill="black"/>
<path opacity="0.1" d="M280.904 196.752C278.72 196.752 276.625 195.884 275.08 194.339C273.535 192.795 272.667 190.7 272.667 188.515C272.667 184.809 275.113 182.59 278.479 181.895C278.082 181.925 277.687 181.977 277.295 182.049C273.831 182.703 271.293 184.937 271.293 188.711C271.293 190.895 272.161 192.99 273.705 194.535C275.25 196.08 277.345 196.947 279.53 196.947C280.152 196.948 280.772 196.878 281.378 196.736C281.218 196.747 281.074 196.752 280.904 196.752Z" fill="black"/>
<path d="M317.212 349.206C318.35 350.236 320.09 350.21 321.634 350.097L328.671 349.582C334.262 349.17 340.043 348.707 344.975 346.045C345.496 345.807 345.959 345.455 346.328 345.016C346.72 344.342 346.925 343.576 346.92 342.797C347.587 335.172 349.103 327.646 351.44 320.357C354.529 310.654 359.162 301.089 359.1 290.932C359.1 290.685 359.1 290.417 359.1 290.196C359.013 287.015 358.452 283.869 358.107 280.703C357.535 275.406 357.592 270.068 357.633 264.745C357.589 262.658 357.734 260.572 358.066 258.511C358.39 256.838 359.61 255.16 358.863 253.687C357.417 250.83 352.171 249.78 349.35 249.677C345.551 249.543 341.814 250.537 338.143 251.525C337.026 251.829 335.858 252.153 335.013 252.941C333.881 254.001 333.557 255.664 333.515 257.214C333.32 264.086 337.278 270.48 337.592 277.342C337.649 278.577 337.592 279.916 338.313 280.945C338.789 281.506 339.305 282.031 339.858 282.515C341.402 284.209 341.448 286.762 341.34 289.058C341.294 289.985 341.242 290.912 341.181 291.838C340.34 304.205 337.841 316.403 333.752 328.105C333.358 329.354 332.841 330.561 332.208 331.708C331.175 333.319 329.884 334.748 328.388 335.94C326.268 337.751 323.996 339.377 321.598 340.8C319.997 341.747 318.288 342.653 317.191 344.156C316.095 345.659 315.853 347.94 317.212 349.206Z" fill="#FDA8A8"/>
<path opacity="0.1" d="M317.212 349.206C318.35 350.236 320.09 350.21 321.634 350.097L328.671 349.582C334.262 349.17 340.043 348.707 344.975 346.045C345.496 345.807 345.959 345.455 346.328 345.016C346.72 344.342 346.925 343.576 346.92 342.797C347.587 335.172 349.103 327.646 351.44 320.357C354.529 310.654 359.162 301.089 359.1 290.932C359.1 290.685 359.1 290.417 359.1 290.196C359.013 287.015 358.452 283.869 358.107 280.703C357.535 275.406 357.592 270.068 357.633 264.745C357.589 262.658 357.734 260.572 358.066 258.511C358.39 256.838 359.61 255.16 358.863 253.687C357.417 250.83 352.171 249.78 349.35 249.677C345.551 249.543 341.814 250.537 338.143 251.525C337.026 251.829 335.858 252.153 335.013 252.941C333.881 254.001 333.557 255.664 333.515 257.214C333.32 264.086 337.278 270.48 337.592 277.342C337.649 278.577 337.592 279.916 338.313 280.945C338.789 281.506 339.305 282.031 339.858 282.515C341.402 284.209 341.448 286.762 341.34 289.058C341.294 289.985 341.242 290.912 341.181 291.838C340.34 304.205 337.841 316.403 333.752 328.105C333.358 329.354 332.841 330.561 332.208 331.708C331.175 333.319 329.884 334.748 328.388 335.94C326.268 337.751 323.996 339.377 321.598 340.8C319.997 341.747 318.288 342.653 317.191 344.156C316.095 345.659 315.853 347.94 317.212 349.206Z" fill="black"/>
<path d="M317.212 349.206C318.35 350.236 320.09 350.21 321.634 350.097L328.671 349.582C334.262 349.17 340.043 348.707 344.975 346.045C345.496 345.807 345.959 345.455 346.328 345.016C346.72 344.342 346.925 343.576 346.92 342.797C347.587 335.172 349.103 327.646 351.44 320.357C354.529 310.654 359.162 301.089 359.1 290.932C353.151 291.59 347.166 291.886 341.181 291.818C340.34 304.185 337.841 316.383 333.752 328.084C333.358 329.334 332.841 330.541 332.208 331.688C331.175 333.298 329.885 334.728 328.388 335.919C326.268 337.73 323.996 339.356 321.598 340.779C319.997 341.726 318.288 342.632 317.191 344.135C316.095 345.639 315.853 347.94 317.212 349.206Z" fill="#EEEFF3"/>
<path opacity="0.1" d="M317.212 349.206C318.35 350.236 320.09 350.21 321.634 350.097L328.671 349.582C334.262 349.17 340.043 348.707 344.975 346.045C345.496 345.807 345.959 345.455 346.328 345.016C346.72 344.342 346.925 343.576 346.92 342.797C347.587 335.172 349.103 327.646 351.44 320.357C354.529 310.654 359.162 301.089 359.1 290.932C353.151 291.59 347.166 291.886 341.181 291.818C340.34 304.185 337.841 316.383 333.752 328.084C333.358 329.334 332.841 330.541 332.208 331.688C331.175 333.298 329.885 334.728 328.388 335.919C326.268 337.73 323.996 339.356 321.598 340.779C319.997 341.726 318.288 342.632 317.191 344.135C316.095 345.639 315.853 347.94 317.212 349.206Z" fill="black"/>
<path d="M332.758 347.034C334.449 346.428 336.074 345.652 337.608 344.717L345.366 340.341C346.066 339.888 346.847 339.571 347.667 339.41L348.593 346.334C348.825 348.032 348.948 350.03 347.667 351.167C347.209 351.533 346.684 351.806 346.122 351.97C343.306 352.943 340.269 352.964 337.289 353.057C328.136 353.35 318.89 354.421 309.871 352.815C308.769 352.619 307.575 352.3 306.911 351.425C306.154 350.395 306.37 348.902 307.101 347.857C307.903 346.864 308.923 346.069 310.082 345.536C312.378 344.3 314.761 343.25 317.145 342.195C317.292 342.108 317.466 342.078 317.634 342.112C317.866 342.19 317.938 342.473 317.999 342.709C318.416 344.398 319.775 345.731 321.325 346.529C321.346 346.529 329.33 348.125 332.758 347.034Z" fill="#BBBDC8"/>
<path opacity="0.1" d="M332.758 347.034C334.449 346.428 336.074 345.652 337.608 344.717L345.366 340.341C346.066 339.888 346.847 339.571 347.667 339.41L348.593 346.334C348.825 348.032 348.948 350.03 347.667 351.167C347.209 351.533 346.684 351.806 346.122 351.97C343.306 352.943 340.269 352.964 337.289 353.057C328.136 353.35 318.89 354.421 309.871 352.815C308.769 352.619 307.575 352.3 306.911 351.425C306.154 350.395 306.37 348.902 307.101 347.857C307.903 346.864 308.923 346.069 310.082 345.536C312.378 344.3 314.761 343.25 317.145 342.195C317.292 342.108 317.466 342.078 317.634 342.112C317.866 342.19 317.938 342.473 317.999 342.709C318.416 344.398 319.775 345.731 321.325 346.529C321.346 346.529 329.33 348.125 332.758 347.034Z" fill="black"/>
<path d="M322.36 356.413C323.497 357.443 325.237 357.417 326.782 357.304L333.819 356.789C339.41 356.377 345.191 355.914 350.122 353.252C350.644 353.014 351.107 352.662 351.476 352.223C351.868 351.549 352.073 350.783 352.068 350.004C352.734 342.379 354.25 334.853 356.588 327.564C359.677 317.861 364.31 308.296 364.248 298.139C364.248 297.892 364.248 297.624 364.248 297.403C364.16 294.222 363.599 291.076 363.254 287.91C362.683 282.613 362.74 277.275 362.781 271.952C362.737 269.865 362.882 267.779 363.213 265.718C363.538 264.045 364.758 262.367 364.011 260.894C362.565 258.037 357.319 256.987 354.498 256.884C350.699 256.75 346.961 257.744 343.291 258.732C342.174 259.036 341.005 259.36 340.161 260.148C339.029 261.208 338.704 262.871 338.663 264.421C338.467 271.293 342.426 277.687 342.74 284.549C342.797 285.784 342.74 287.123 343.461 288.152C343.936 288.713 344.453 289.238 345.005 289.722C346.55 291.416 346.596 293.969 346.488 296.265C346.442 297.192 346.39 298.119 346.328 299.045C345.487 311.412 342.989 323.61 338.9 335.312C338.506 336.561 337.988 337.768 337.356 338.915C336.323 340.526 335.032 341.955 333.536 343.147C331.415 344.958 329.144 346.584 326.746 348.007C325.145 348.954 323.436 349.86 322.339 351.363C321.243 352.866 321.001 355.147 322.36 356.413Z" fill="#FDA8A8"/>
<path d="M322.36 356.413C323.497 357.443 325.237 357.417 326.782 357.304L333.819 356.789C339.41 356.377 345.191 355.914 350.122 353.252C350.644 353.014 351.107 352.662 351.476 352.223C351.868 351.549 352.073 350.783 352.068 350.004C352.734 342.379 354.25 334.853 356.588 327.564C359.677 317.861 364.31 308.296 364.248 298.139C358.298 298.797 352.314 299.093 346.328 299.025C345.487 311.392 342.989 323.59 338.9 335.291C338.506 336.541 337.988 337.748 337.356 338.895C336.323 340.505 335.032 341.935 333.536 343.126C331.415 344.937 329.144 346.563 326.746 347.986C325.145 348.933 323.436 349.839 322.339 351.342C321.243 352.846 321.001 355.147 322.36 356.413Z" fill="#EEEFF3"/>
<path d="M337.907 354.241C339.597 353.635 341.222 352.859 342.756 351.924L350.514 347.548C351.215 347.095 351.996 346.778 352.815 346.617L353.741 353.541C353.973 355.239 354.097 357.237 352.815 358.374C352.357 358.74 351.833 359.013 351.27 359.177C348.455 360.15 345.417 360.171 342.437 360.264C333.284 360.557 324.038 361.628 315.019 360.022C313.918 359.826 312.723 359.507 312.059 358.632C311.302 357.602 311.519 356.109 312.25 355.064C313.051 354.071 314.071 353.276 315.23 352.743C317.526 351.507 319.91 350.457 322.293 349.402C322.44 349.315 322.615 349.285 322.782 349.319C323.014 349.397 323.086 349.68 323.148 349.916C323.565 351.605 324.924 352.938 326.473 353.736C326.494 353.736 334.478 355.332 337.907 354.241Z" fill="#BBBDC8"/>
<path d="M312.378 147.595C314.885 144.506 314.952 140.192 314.89 136.228C314.89 134.684 314.844 133.088 314.787 131.518V131.482C314.718 128.596 314.413 125.721 313.876 122.885C313.605 121.524 313.244 120.183 312.795 118.87C313.135 118.792 313.475 118.72 313.825 118.659C319.221 117.593 324.773 117.593 330.169 118.659C331.101 118.844 333.459 118.803 334.802 119.261C335.185 119.352 335.518 119.586 335.734 119.915C335.997 120.465 335.456 122.061 335.065 123.477C334.85 124.115 334.728 124.781 334.705 125.454C334.757 126.086 334.853 126.714 334.993 127.333C335.235 128.47 335.554 129.598 335.703 130.751C335.966 132.717 335.734 134.72 335.863 136.702C335.991 138.684 336.563 140.769 338.071 142.061C329.307 142.812 320.674 144.672 312.378 147.595Z" fill="#FDA8A8"/>
<path opacity="0.1" d="M337.047 127.106C336.362 127.163 335.683 127.23 334.988 127.307C328.131 128.039 321.364 129.453 314.787 131.528V131.492L313.876 122.895C313.876 122.38 313.876 121.866 313.876 121.325C313.876 120.445 313.85 119.554 313.83 118.669C319.226 117.603 324.778 117.603 330.174 118.669C331.106 118.854 333.464 118.813 334.807 119.271C334.807 120.11 334.807 120.949 334.838 121.788C334.872 122.36 334.95 122.928 335.07 123.487C335.316 124.877 336.01 126.148 337.047 127.106Z" fill="black"/>
<path d="M324.059 129.469C334.578 129.469 343.106 120.941 343.106 110.422C343.106 99.9025 334.578 91.3748 324.059 91.3748C313.539 91.3748 305.012 99.9025 305.012 110.422C305.012 120.941 313.539 129.469 324.059 129.469Z" fill="#FDA8A8"/>
<path d="M307.328 182.24C303.946 170.271 307.035 157.417 315.112 147.965C316.908 145.86 318.715 143.698 321.073 142.437C323.879 140.944 327.199 140.892 330.375 140.861C333.181 140.861 336.074 140.861 338.653 141.978C342.138 143.466 344.542 146.699 346.57 149.906C348.733 153.324 350.689 157.026 351.018 161.062C351.193 163.455 350.771 165.885 351.126 168.269C351.579 171.29 353.263 173.998 353.952 176.974C354.328 178.58 354.405 180.243 354.647 181.88C355.012 184.119 355.542 186.328 356.233 188.489C361.348 205.473 368.352 221.828 377.113 237.25C379.687 241.796 382.441 246.29 384.171 251.216C384.953 253.445 385.519 255.849 384.881 258.145C383.815 261.955 379.002 264.194 375.404 262.552C375.537 262.975 375.51 263.432 375.327 263.837C375.145 264.241 374.82 264.564 374.415 264.745C373.56 265.131 372.624 265.308 371.687 265.26L339.894 266.104C339.059 266.125 338.228 266.237 337.418 266.439C333.68 267.396 335.086 269.012 334.684 270.361C334.195 272.009 331.832 271.875 330.185 271.391C330.437 273.795 330.494 276.734 327.389 277.434C326.584 277.598 325.752 277.569 324.96 277.352C319.327 275.901 313.486 275.431 307.694 275.962C305.573 276.158 303.148 276.395 301.578 274.933C300.394 273.846 300.085 272.117 299.884 270.521C296.718 245.296 303.23 220.036 308.121 195.115C308.78 191.753 308.543 186.307 307.555 183.022L307.328 182.24Z" fill="#F75842"/>
<path d="M349.541 164.856C350.287 167.007 351.219 169.123 351.471 171.388C351.672 173.2 351.43 175.033 351.538 176.85C351.736 178.868 352.151 180.858 352.779 182.786C353.77 186.535 354.992 190.219 356.439 193.817C357.129 195.439 357.927 197.225 357.371 198.898C356.815 200.571 355.09 201.606 354.596 203.269C354.081 205.024 355.111 206.872 356.423 208.154C357.736 209.436 359.378 210.347 360.593 211.711C361.916 213.199 362.652 215.099 363.584 216.859C364.907 219.188 366.424 221.401 368.119 223.474L374.343 231.551C374.731 232.134 375.24 232.625 375.836 232.993C377.895 234.064 380.052 231.907 382.147 230.934C384.927 229.611 388.181 230.388 391.254 230.609C394.327 230.831 398.029 230.033 399.125 227.16C399.488 225.994 399.564 224.758 399.346 223.557C398.865 219.449 397.677 215.456 395.836 211.753C394.713 209.498 393.344 207.341 392.639 204.927C392.062 202.965 391.949 200.901 391.491 198.909C391.033 196.916 390.224 195.012 389.576 193.066C384.974 179.239 388.433 164.109 386.945 149.613C386.394 144.264 384.762 138.401 380.16 135.616C377.427 133.963 374.142 133.706 370.894 133.556L369.427 133.49L367.064 133.371C363.646 133.201 360.217 133.073 356.887 133.798C352.202 134.828 346.565 138.468 346.38 143.698C346.178 150.882 347.249 158.044 349.541 164.856Z" fill="#6C63FF"/>
<path opacity="0.1" d="M367.09 133.351C367.722 136.853 368.037 140.406 368.032 143.965C368.125 154.127 369.221 164.248 370.323 174.338L371.049 181.03C371.182 182.266 371.342 183.563 372.078 184.556C372.814 185.55 374.359 186.07 375.332 185.303C375.929 182.94 375.81 180.459 375.692 178.024C375.435 172.845 375.179 167.665 374.925 162.482C374.678 157.437 374.41 152.387 373.798 147.373C373.317 143.49 372.609 139.638 371.677 135.837C371.5 135.05 371.254 134.28 370.94 133.536L369.473 133.469L367.09 133.351Z" fill="black"/>
<path d="M333.454 137.706C330.298 137.253 326.993 137.021 323.997 138.117C321.135 139.173 318.849 141.34 316.79 143.621C315.386 145.09 314.225 146.774 313.351 148.609C311.596 152.645 312.28 157.298 313.351 161.571C316.27 173.339 322.066 184.69 331.369 192.458C334.2 194.759 337.215 196.825 340.383 198.636C344.501 201.05 348.753 203.269 353.309 204.664C354.58 205.055 355.934 205.385 357.237 205.107C358.539 204.829 359.769 203.773 359.811 202.44C352.346 198.245 345.654 192.824 339.008 187.429C337.186 186.024 335.48 184.474 333.907 182.796C331.549 180.145 329.886 176.943 327.6 174.23C325.541 171.795 322.967 169.741 321.423 166.956C320.454 165.054 319.805 163.005 319.503 160.892C318.741 156.583 318.597 152.006 320.306 147.976C322.015 143.945 325.932 140.635 330.308 140.707C332.553 140.743 334.689 141.633 336.758 142.503L349.783 148.001C349.623 147.929 350.529 145.669 350.488 145.355C350.364 144.372 350.189 144.357 349.458 143.61C348.212 142.364 346.277 141.489 344.696 140.763C341.115 139.211 337.328 138.181 333.454 137.706Z" fill="#6C63FF"/>
<path d="M307.529 106.818C311.245 105.993 314.683 104.219 317.51 101.671L314.787 115.961C317.5 114.716 320.131 113.299 322.663 111.719C323.029 118.257 322.499 124.944 320.09 131.029C317.68 137.114 313.238 142.56 307.277 145.263C312.569 146.148 317.32 142.349 322.03 139.78C325.315 137.994 330.926 139.832 334.519 138.751C337.567 137.855 340.696 137.072 343.445 135.471C348.552 132.491 349.71 123.786 350.745 117.969C351.78 112.152 350.838 106.129 349.118 100.466C348.546 98.4605 347.772 96.5183 346.807 94.6694C345.481 92.2413 343.666 90.1148 341.476 88.424C339.286 86.7332 336.769 85.5151 334.085 84.8465C331.4 84.1779 328.606 84.0734 325.879 84.5396C323.152 85.0058 320.551 86.0326 318.241 87.555C313.495 90.6798 309.094 95.2768 305.47 99.6371C304.955 100.239 302.829 102.381 303.534 103.282C304.394 104.373 309.439 101.264 310.293 100.842C310.046 101.773 308.512 106.576 307.529 106.818Z" fill="#FFD566"/>
<g opacity="0.1">
<path d="M328.949 273.316C328.144 273.479 327.312 273.451 326.519 273.234C320.886 271.783 315.046 271.313 309.253 271.844C307.132 272.039 304.708 272.276 303.138 270.814C301.954 269.728 301.645 267.998 301.444 266.402C298.278 241.178 304.79 215.917 309.681 190.996C310.34 187.635 310.103 182.188 309.114 178.904L308.883 178.106C306.977 171.3 307.09 164.088 309.207 157.345C305.695 165.17 305.03 173.977 307.328 182.24L307.56 183.038C308.548 186.322 308.785 191.789 308.126 195.13C303.251 220.051 296.739 245.327 299.889 270.536C300.09 272.132 300.404 273.862 301.583 274.948C303.127 276.395 305.578 276.158 307.699 275.978C313.491 275.446 319.332 275.916 324.965 277.367C325.757 277.585 326.589 277.613 327.394 277.45C329.927 276.878 330.355 274.814 330.293 272.77C329.882 273.032 329.426 273.217 328.949 273.316Z" fill="black"/>
<path d="M376.958 258.434C377.092 258.857 377.064 259.314 376.882 259.718C376.7 260.123 376.375 260.446 375.97 260.627C375.115 261.013 374.179 261.189 373.242 261.141L341.448 261.986C340.613 262.007 339.783 262.119 338.972 262.32C335.235 263.278 336.64 264.894 336.239 266.243C335.75 267.89 333.387 267.756 331.74 267.272C331.894 268.74 331.971 270.402 331.307 271.638C332.754 271.854 334.308 271.664 334.694 270.361C335.08 269.059 333.691 267.396 337.428 266.439C338.239 266.237 339.069 266.125 339.904 266.104L371.677 265.26C372.614 265.308 373.55 265.131 374.405 264.745C374.81 264.564 375.135 264.241 375.317 263.837C375.5 263.432 375.527 262.975 375.394 262.552C378.997 264.194 383.805 261.955 384.871 258.145C385.031 257.568 385.121 256.973 385.138 256.374C383.213 258.681 379.728 259.71 376.958 258.434Z" fill="black"/>
</g>
<path d="M334.308 150.864C337.043 156.678 339.461 162.636 341.551 168.711C343.24 173.607 344.727 178.75 344.166 183.898C343.605 189.045 340.563 194.245 335.621 195.866C333.52 196.556 331.271 196.561 329.062 196.613C323.773 196.737 318.494 197.163 313.253 197.889C310.814 198.293 308.355 198.566 305.887 198.708C302.396 198.821 298.906 198.276 295.426 198.559C289.794 199.017 284.446 201.647 278.793 201.647C278.104 201.69 277.415 201.563 276.786 201.277C275.756 200.721 275.298 199.516 274.948 198.404C274.16 195.892 273.543 193.009 274.876 190.739C276.518 187.944 280.25 187.383 283.488 187.136C290.778 186.621 298.076 186.26 305.382 186.054C311.616 185.879 318.37 185.643 323.204 181.699C323.53 181.466 323.797 181.159 323.981 180.804C324.164 180.201 324.142 179.555 323.92 178.966C322.004 171.479 321.182 163.754 321.48 156.032C321.446 155.339 321.626 154.653 321.994 154.066C322.432 153.594 323 153.265 323.626 153.118C327.942 151.734 332.563 151.605 336.949 152.748" fill="#FDA8A8"/>
<path d="M321.351 156.027C320.604 156.284 319.953 156.764 319.487 157.401C319.693 155.255 319.415 153.087 319.456 150.925C319.498 148.763 319.899 146.509 321.263 144.83C322.998 142.689 325.948 141.922 328.707 141.85C332.712 141.742 336.856 142.905 339.79 145.633C341.679 147.402 342.905 149.763 343.265 152.326C343.358 153.031 343.667 155.677 342.931 156.13C342.287 156.531 339.842 155.147 339.054 154.925C333.206 153.207 326.941 153.596 321.351 156.027Z" fill="#F75842"/>
<path opacity="0.1" d="M243.494 34.4908C245.485 34.4908 247.098 32.8774 247.098 30.8872C247.098 28.8971 245.485 27.2837 243.494 27.2837C241.504 27.2837 239.891 28.8971 239.891 30.8872C239.891 32.8774 241.504 34.4908 243.494 34.4908Z" fill="#6C63FF"/>
<path opacity="0.1" d="M267.689 103.987C269.68 103.987 271.293 102.374 271.293 100.384C271.293 98.3934 269.68 96.78 267.689 96.78C265.699 96.78 264.086 98.3934 264.086 100.384C264.086 102.374 265.699 103.987 267.689 103.987Z" fill="#6C63FF"/>
<path opacity="0.1" d="M199.223 38.0943C201.213 38.0943 202.826 36.4809 202.826 34.4908C202.826 32.5006 201.213 30.8872 199.223 30.8872C197.232 30.8872 195.619 32.5006 195.619 34.4908C195.619 36.4809 197.232 38.0943 199.223 38.0943Z" fill="#6C63FF"/>
<path opacity="0.1" d="M88.5435 207.974C93.6611 207.974 97.8097 203.826 97.8097 198.708C97.8097 193.59 93.6611 189.442 88.5435 189.442C83.426 189.442 79.2773 193.59 79.2773 198.708C79.2773 203.826 83.426 207.974 88.5435 207.974Z" fill="#6C63FF"/>
<path opacity="0.1" d="M461.764 55.0823C463.754 55.0823 465.368 53.4689 465.368 51.4787C465.368 49.4886 463.754 47.8752 461.764 47.8752C459.774 47.8752 458.161 49.4886 458.161 51.4787C458.161 53.4689 459.774 55.0823 461.764 55.0823Z" fill="#6C63FF"/>
<path opacity="0.1" d="M465.883 112.224C472.422 112.224 477.723 106.923 477.723 100.384C477.723 93.8444 472.422 88.5434 465.883 88.5434C459.343 88.5434 454.042 93.8444 454.042 100.384C454.042 106.923 459.343 112.224 465.883 112.224Z" fill="#6C63FF"/>
<path opacity="0.1" d="M484.93 70.5259C486.92 70.5259 488.533 68.9125 488.533 66.9224C488.533 64.9322 486.92 63.3189 484.93 63.3189C482.94 63.3189 481.326 64.9322 481.326 66.9224C481.326 68.9125 482.94 70.5259 484.93 70.5259Z" fill="#6C63FF"/>
<path opacity="0.1" d="M453.013 136.419C455.003 136.419 456.616 134.805 456.616 132.815C456.616 130.825 455.003 129.212 453.013 129.212C451.023 129.212 449.409 130.825 449.409 132.815C449.409 134.805 451.023 136.419 453.013 136.419Z" fill="#6C63FF"/>
<path opacity="0.1" d="M236.287 63.3188C238.278 63.3188 239.891 61.7055 239.891 59.7153C239.891 57.7252 238.278 56.1118 236.287 56.1118C234.297 56.1118 232.684 57.7252 232.684 59.7153C232.684 61.7055 234.297 63.3188 236.287 63.3188Z" fill="#6C63FF"/>
<path opacity="0.1" d="M101.413 245.554C103.403 245.554 105.017 243.94 105.017 241.95C105.017 239.96 103.403 238.347 101.413 238.347C99.4229 238.347 97.8096 239.96 97.8096 241.95C97.8096 243.94 99.4229 245.554 101.413 245.554Z" fill="#6C63FF"/>
<path opacity="0.1" d="M95.7505 163.188C97.7406 163.188 99.354 161.574 99.354 159.584C99.354 157.594 97.7406 155.981 95.7505 155.981C93.7603 155.981 92.147 157.594 92.147 159.584C92.147 161.574 93.7603 163.188 95.7505 163.188Z" fill="#6C63FF"/>
<path opacity="0.1" d="M293.429 30.8872C295.419 30.8872 297.032 29.2739 297.032 27.2837C297.032 25.2936 295.419 23.6802 293.429 23.6802C291.439 23.6802 289.825 25.2936 289.825 27.2837C289.825 29.2739 291.439 30.8872 293.429 30.8872Z" fill="#6C63FF"/>
<path opacity="0.1" d="M305.269 63.3188C307.259 63.3188 308.873 61.7055 308.873 59.7153C308.873 57.7252 307.259 56.1118 305.269 56.1118C303.279 56.1118 301.666 57.7252 301.666 59.7153C301.666 61.7055 303.279 63.3188 305.269 63.3188Z" fill="#6C63FF"/>
</g>
<defs>
<linearGradient id="paint0_linear_258_68" x1="197.967" y1="362.735" x2="197.967" y2="84.4251" gradientUnits="userSpaceOnUse">
<stop stop-color="#808080" stop-opacity="0.25"/>
<stop offset="0.54" stop-color="#808080" stop-opacity="0.12"/>
<stop offset="1" stop-color="#808080" stop-opacity="0.1"/>
</linearGradient>
<linearGradient id="paint1_linear_258_68" x1="336.156" y1="360.887" x2="336.156" y2="82.8808" gradientUnits="userSpaceOnUse">
<stop stop-color="#808080" stop-opacity="0.25"/>
<stop offset="0.54" stop-color="#808080" stop-opacity="0.12"/>
<stop offset="1" stop-color="#808080" stop-opacity="0.1"/>
</linearGradient>
<clipPath id="clip0_258_68">
<rect width="557" height="373.221" fill="white"/>
</clipPath>
</defs>
</svg>
