<svg width="608" height="309" viewBox="0 0 608 309" fill="none" xmlns="http://www.w3.org/2000/svg">
<g clip-path="url(#clip0_258_170)">
<path d="M79.3877 290.202C78.8673 290.226 78.3522 290.089 77.912 289.81C77.4719 289.532 77.128 289.125 76.9271 288.644C76.7261 288.163 76.6777 287.633 76.7885 287.124C76.8993 286.615 77.1639 286.152 77.5464 285.798C77.6105 285.544 77.6564 285.361 77.7205 285.106C77.6976 285.051 77.6745 284.995 77.6513 284.94C77.1271 283.702 76.2486 282.646 75.1263 281.905C74.0039 281.165 72.6877 280.772 71.343 280.777C69.9984 280.782 68.6851 281.184 67.5683 281.933C66.4515 282.682 65.5809 283.745 65.0659 284.987C63.0075 289.944 60.3867 294.91 59.7414 300.152C59.4572 302.469 59.5771 304.818 60.0958 307.094C55.2611 296.548 52.7506 285.085 52.7344 273.484C52.7334 270.573 52.8952 267.664 53.2189 264.77C53.4865 262.399 53.8577 260.044 54.3326 257.706C56.9238 245.019 62.4874 233.129 70.5664 223.011C74.4766 220.877 77.6388 217.596 79.627 213.61C80.3472 212.177 80.8563 210.648 81.1383 209.069C80.6972 209.127 80.2489 209.163 79.8078 209.192C79.6704 209.199 79.5258 209.206 79.3884 209.214L79.3365 209.216C78.8518 209.238 78.371 209.119 77.9522 208.874C77.5334 208.629 77.1944 208.268 76.9759 207.834C76.7575 207.401 76.669 206.914 76.721 206.431C76.773 205.949 76.9634 205.492 77.2692 205.115C77.4596 204.881 77.6502 204.646 77.8408 204.412C78.1301 204.051 78.4266 203.696 78.7158 203.335C78.7492 203.3 78.7806 203.264 78.8098 203.226C79.1425 202.814 79.4751 202.409 79.8078 201.997C79.2006 201.055 78.3839 200.265 77.4215 199.69C74.0879 197.738 69.4889 199.09 67.0809 202.105C64.6657 205.121 64.2102 209.351 65.049 213.118C65.8739 216.324 67.2383 219.366 69.084 222.114C68.9032 222.345 68.7151 222.57 68.5344 222.801C65.2297 227.05 62.3495 231.613 59.935 236.424C60.5221 231.035 59.8213 225.582 57.8902 220.516C55.9329 215.794 52.2645 211.818 49.0339 207.736C45.1535 202.833 37.1963 204.973 36.5127 211.188C36.506 211.248 36.4996 211.308 36.4933 211.368C36.9731 211.639 37.4428 211.926 37.9024 212.23C38.4797 212.616 38.9271 213.167 39.1859 213.812C39.4446 214.456 39.5027 215.163 39.3525 215.841C39.2023 216.519 38.8509 217.136 38.3442 217.611C37.8375 218.086 37.1992 218.396 36.513 218.502L36.4427 218.513C36.6136 220.242 36.9158 221.956 37.3466 223.64C38.5948 228.34 40.8005 232.731 43.8255 236.539C46.8504 240.347 50.6294 243.488 54.9254 245.767C55.2074 245.912 55.4823 246.056 55.7643 246.194C53.3384 253.068 51.8167 260.229 51.2376 267.496C50.9097 271.784 50.9291 276.091 51.2955 280.375L51.2738 280.223C50.3481 275.459 47.8067 271.161 44.0788 268.053C38.5418 263.505 30.7192 261.83 24.7458 258.174C24.111 257.766 23.3728 257.549 22.6184 257.547C21.864 257.545 21.1248 257.759 20.488 258.164C19.8512 258.568 19.3433 259.146 19.0243 259.83C18.7053 260.513 18.5885 261.274 18.6876 262.022C18.6956 262.075 18.7038 262.128 18.712 262.182C19.6025 262.544 20.4695 262.962 21.308 263.433C21.7878 263.703 22.2575 263.991 22.7171 264.294C23.2944 264.68 23.7418 265.231 24.0006 265.876C24.2593 266.52 24.3174 267.228 24.1672 267.905C24.017 268.583 23.6656 269.2 23.1589 269.675C22.6522 270.15 22.0139 270.46 21.3277 270.566L21.2573 270.577C21.2067 270.584 21.1633 270.591 21.1128 270.599C22.6342 274.231 24.7697 277.575 27.4255 280.484C30.7064 284.004 34.6718 286.817 39.0785 288.751C43.4852 290.684 48.2405 291.697 53.0526 291.728H53.0599C54.3662 297.404 56.2588 302.93 58.7074 308.215H78.8822C78.9546 307.991 79.0196 307.759 79.0847 307.535C77.2173 307.653 75.3425 307.541 73.5022 307.203C74.9991 305.366 76.4959 303.515 77.9928 301.678C78.0262 301.644 78.0575 301.607 78.0868 301.569C78.846 300.629 79.6125 299.697 80.3718 298.757L80.3722 298.755C80.4127 295.874 80.082 292.999 79.3884 290.202L79.3877 290.202Z" fill="#F2F2F2"/>
<path d="M481.653 278.183C482.036 278.536 482.518 278.763 483.035 278.833C483.551 278.903 484.076 278.813 484.539 278.575C485.002 278.336 485.381 277.961 485.624 277.5C485.867 277.039 485.962 276.515 485.897 275.998C486.012 275.762 486.094 275.593 486.209 275.356C486.263 275.329 486.316 275.301 486.369 275.274C487.568 274.664 488.919 274.421 490.255 274.577C491.591 274.733 492.851 275.28 493.876 276.149C494.902 277.018 495.648 278.172 496.021 279.464C496.393 280.756 496.376 282.129 495.97 283.411C494.354 288.53 493.163 294.017 490.283 298.444C489.009 300.4 487.405 302.121 485.543 303.529C496.031 298.57 505.331 291.414 512.812 282.546C514.687 280.319 516.435 277.989 518.05 275.566C519.372 273.579 520.604 271.538 521.746 269.443C527.929 258.067 531.325 245.386 531.656 232.442C530.037 228.293 529.729 223.746 530.774 219.416C531.145 217.856 531.74 216.358 532.54 214.968C532.84 215.296 533.16 215.612 533.479 215.919C533.58 216.012 533.686 216.111 533.786 216.205L533.824 216.24C534.181 216.569 534.626 216.787 535.104 216.87C535.582 216.952 536.074 216.894 536.52 216.703C536.966 216.512 537.348 216.196 537.619 215.793C537.889 215.39 538.038 214.918 538.046 214.433C538.051 214.131 538.056 213.829 538.061 213.527C538.073 213.064 538.074 212.602 538.085 212.139C538.082 212.091 538.081 212.043 538.083 211.996C538.094 211.466 538.1 210.942 538.111 210.412C539.182 210.082 540.315 210.004 541.422 210.183C545.23 210.835 547.879 214.83 547.78 218.688C547.688 222.55 545.313 226.081 542.246 228.424C539.551 230.346 536.549 231.796 533.368 232.71C533.357 233.004 533.357 233.296 533.346 233.59C533.14 238.969 532.406 244.315 531.157 249.551C534.177 245.048 538.223 241.327 542.963 238.693C547.5 236.34 552.867 235.658 557.967 234.614C564.092 233.36 568.804 240.12 565.326 245.316C565.293 245.366 565.259 245.416 565.225 245.466C564.684 245.365 564.139 245.282 563.592 245.219C562.902 245.143 562.205 245.276 561.592 245.603C560.979 245.929 560.479 246.433 560.158 247.049C559.836 247.664 559.708 248.363 559.79 249.052C559.873 249.741 560.161 250.39 560.618 250.913L560.665 250.966C559.421 252.18 558.086 253.297 556.673 254.308C552.692 257.101 548.177 259.042 543.411 260.009C538.646 260.975 533.731 260.947 528.977 259.925C528.668 259.854 528.365 259.788 528.06 259.712C525.491 266.534 522.046 272.994 517.811 278.928C515.302 282.42 512.515 285.704 509.477 288.746L509.591 288.644C513.366 285.594 518.078 283.941 522.931 283.962C530.096 284.046 537.161 287.8 544.086 288.847C544.834 288.944 545.539 289.252 546.117 289.737C546.696 290.221 547.124 290.86 547.351 291.58C547.578 292.299 547.594 293.069 547.398 293.797C547.202 294.526 546.802 295.183 546.245 295.692C546.204 295.727 546.164 295.763 546.123 295.798C545.208 295.502 544.276 295.264 543.331 295.084C542.79 294.983 542.246 294.9 541.698 294.837C541.008 294.76 540.311 294.894 539.698 295.221C539.085 295.547 538.586 296.051 538.264 296.667C537.943 297.282 537.815 297.98 537.897 298.67C537.979 299.359 538.267 300.008 538.724 300.531L538.771 300.584C538.805 300.622 538.834 300.656 538.868 300.694C535.365 302.495 531.578 303.679 527.674 304.195C522.897 304.777 518.051 304.377 513.435 303.02C508.818 301.663 504.526 299.378 500.824 296.303L500.819 296.299C496.165 299.802 491.16 302.812 485.884 305.28L470.445 292.293C470.534 292.075 470.633 291.856 470.727 291.643C472.081 292.934 473.587 294.056 475.214 294.982C475.25 292.612 475.297 290.232 475.333 287.863C475.33 287.815 475.329 287.767 475.331 287.72C475.355 286.512 475.369 285.304 475.393 284.096L475.394 284.095C477.218 281.864 479.321 279.877 481.653 278.183L481.653 278.183Z" fill="#F2F2F2"/>
<path d="M148.14 169.056C147.575 168.92 147.046 168.662 146.592 168.3C146.138 167.937 145.768 167.48 145.51 166.959C145.252 166.439 145.111 165.868 145.097 165.287C145.083 164.706 145.197 164.129 145.43 163.597L135.065 153.999L142.194 152.248L150.944 161.631C151.812 162.082 152.484 162.836 152.834 163.75C153.183 164.664 153.185 165.674 152.84 166.589C152.494 167.504 151.825 168.261 150.958 168.716C150.092 169.171 149.089 169.292 148.14 169.056Z" fill="#FFB6B6"/>
<path d="M116.511 142.88L105.647 111.169C104.789 108.654 104.963 105.902 106.132 103.515C107.3 101.129 109.367 99.3038 111.88 98.44C113.272 97.9633 114.751 97.7988 116.214 97.9582C117.676 98.1176 119.086 98.597 120.342 99.3623C121.598 100.128 122.671 101.16 123.483 102.387C124.295 103.613 124.828 105.003 125.042 106.459L129.385 135.901L147.549 154.503L142.772 161.311L116.511 142.88Z" fill="#3F3D56"/>
<path d="M98.5771 292.486H106.333L110.022 262.572H98.5757L98.5771 292.486Z" fill="#FFB6B6"/>
<path d="M95.9511 288.66L108.211 287.928V293.181L119.866 301.231C120.442 301.628 120.876 302.199 121.104 302.861C121.332 303.522 121.343 304.239 121.135 304.907C120.926 305.575 120.51 306.159 119.946 306.573C119.383 306.988 118.702 307.212 118.002 307.211H94.4053L95.9511 288.66Z" fill="#2F2E41"/>
<path d="M105.353 151.975C105.353 151.975 102.935 149.442 98.3013 155.426C94.0203 160.844 94.2331 161.902 94.7855 168.786C95.2355 173.708 90.8257 198.446 95.2205 202.651L98.7644 281.883C98.7644 281.883 109.516 284.901 110.022 279.838L137.783 179.088L134.466 153.329L105.353 151.975Z" fill="#2F2E41"/>
<path d="M156.7 291.736L163.496 288L152.317 260.009L142.287 265.524L156.7 291.736Z" fill="#FFB6B6"/>
<path d="M152.556 289.649L162.946 283.101L165.477 287.704L179.569 289.142C180.265 289.213 180.92 289.505 181.438 289.974C181.957 290.444 182.312 291.067 182.451 291.753C182.59 292.438 182.507 293.151 182.213 293.785C181.919 294.42 181.43 294.944 180.816 295.281L168.026 302.313L164.961 303.999L160.139 306.65L152.556 289.649Z" fill="#2F2E41"/>
<path d="M94.9416 165.343C94.9416 165.343 94.8013 178.107 93.6236 185.583C92.4828 192.394 93.961 199.384 97.7615 205.15C100.527 209.246 104.601 213.065 110.478 214.632L151.756 282.355C151.756 282.355 162.631 279.819 160.636 275.139L136.422 173.479L121.105 152.504L94.9416 165.343Z" fill="#2F2E41"/>
<path d="M94.6076 129.233L93.3792 168.786L134.341 157.45L135.061 155.495L136.817 148.835C136.817 148.835 132.756 139.253 133.584 116.942L123.237 89.3552L106.848 89.0202L106.757 89.1116C101.58 94.279 97.7624 100.646 95.6428 107.646C93.5231 114.646 93.1675 122.062 94.6076 129.233Z" fill="#3F3D56"/>
<path d="M177.009 145.488C176.453 145.657 175.866 145.703 175.291 145.621C174.716 145.539 174.166 145.331 173.679 145.014C173.192 144.696 172.781 144.276 172.475 143.782C172.168 143.288 171.974 142.733 171.905 142.156L158.105 139.139L163.362 134.015L175.661 137.666C176.638 137.615 177.6 137.924 178.364 138.534C179.129 139.145 179.643 140.014 179.809 140.978C179.975 141.943 179.782 142.934 179.266 143.765C178.75 144.597 177.947 145.21 177.009 145.488Z" fill="#FFB6B6"/>
<path d="M136.475 138.963L111.033 117.138C109.018 115.406 107.772 112.945 107.57 110.296C107.367 107.647 108.223 105.025 109.951 103.007C110.909 101.89 112.101 100.998 113.442 100.394C114.783 99.7899 116.241 99.4885 117.712 99.5112C119.183 99.5339 120.631 99.8801 121.953 100.525C123.275 101.17 124.439 102.099 125.362 103.244L144.032 126.42L169.121 133.244L168.454 141.534L136.475 138.963Z" fill="#3F3D56"/>
<path d="M132.053 62.3298C132.051 66.8158 130.343 71.1332 127.277 74.4074C124.21 77.6816 120.014 79.6677 115.537 79.9634C111.061 80.2591 106.64 78.8422 103.169 75.9999C99.6986 73.1575 97.4381 69.1022 96.8458 64.6555C96.2534 60.2088 97.3735 55.7032 99.9791 52.0514C102.585 48.3997 106.481 45.8749 110.878 44.9886C115.276 44.1022 119.846 44.9206 123.663 47.2779C127.48 49.6352 130.258 53.3551 131.434 57.6841C131.846 59.1983 132.054 60.7606 132.053 62.3298Z" fill="#FFB8B8"/>
<path d="M125.616 39.0543C124.183 39.0118 124.675 36.3106 123.521 35.4489C123.515 35.475 123.509 35.5011 123.503 35.5272C123.352 36.1106 123.017 36.6301 122.548 37.009C122.08 37.388 121.501 37.6064 120.899 37.6321C120.297 37.6578 119.702 37.4894 119.203 37.1518C118.704 36.8141 118.326 36.3251 118.125 35.7566C117.934 35.099 117.587 34.497 117.115 34.0012C116.642 33.5055 116.057 33.1304 115.41 32.9077C115.338 35.4114 113.444 37.5843 111.185 38.6657C108.925 39.7471 106.349 39.927 103.845 39.9641C101.34 40.0011 98.8 39.9172 96.3713 40.5301C93.9428 41.1429 91.5805 42.5839 90.5429 44.8636C89.5053 47.1432 90.2456 50.2819 92.5145 51.3429C90.7568 51.3523 89.2654 52.8027 88.6576 54.452C88.1594 56.1437 88.0295 57.9225 88.2765 59.6686C88.7705 66.1343 89.9748 73.0953 94.6829 77.5543C98.2711 80.9527 103.407 82.3217 108.349 82.302C113.291 82.2822 112.422 81.8279 117.201 80.5666C117.201 80.5666 121.744 67.543 120.6 66.2618C119.456 64.9806 118.506 63.3412 118.713 61.6362C118.92 59.9311 120.752 58.4038 122.342 59.0528C122.075 58.3692 121.873 58.239 121.747 58.2737C121.827 58.0795 121.898 57.8811 121.957 57.6796C122.257 56.6523 122.795 55.7107 123.53 54.9323C124.264 54.1538 125.172 53.5607 126.18 53.2017C127.198 52.8712 128.293 52.8603 129.318 53.1704C130.342 53.4804 131.247 54.0966 131.911 54.9362C137.144 50.029 133.898 39.3002 125.616 39.0543Z" fill="#2F2E41"/>
<path d="M429.575 169.056C430.14 168.92 430.668 168.662 431.122 168.3C431.577 167.937 431.946 167.48 432.204 166.959C432.463 166.439 432.604 165.868 432.617 165.287C432.631 164.706 432.518 164.129 432.284 163.597L442.649 153.999L435.52 152.248L426.771 161.631C425.903 162.082 425.23 162.836 424.881 163.75C424.531 164.664 424.529 165.674 424.875 166.589C425.22 167.504 425.89 168.261 426.756 168.716C427.622 169.171 428.625 169.292 429.575 169.056Z" fill="#9E616A"/>
<path d="M434.943 161.311L430.165 154.503L448.33 135.901L452.672 106.459C452.887 105.003 453.419 103.613 454.231 102.387C455.044 101.16 456.116 100.128 457.372 99.3623C458.629 98.597 460.038 98.1176 461.5 97.9582C462.963 97.7988 464.442 97.9633 465.834 98.44C468.347 99.3038 470.414 101.129 471.583 103.515C472.751 105.902 472.925 108.654 472.067 111.169L461.203 142.88L434.943 161.311Z" fill="#E6E6E6"/>
<path d="M479.137 292.486H471.381L467.692 262.572H479.138L479.137 292.486Z" fill="#9E616A"/>
<path d="M483.309 307.211H459.712C459.013 307.211 458.331 306.988 457.768 306.573C457.204 306.159 456.788 305.575 456.58 304.907C456.372 304.239 456.382 303.522 456.611 302.861C456.839 302.199 457.272 301.628 457.848 301.231L469.504 293.181V287.928L481.763 288.66L483.309 307.211Z" fill="#2F2E41"/>
<path d="M472.361 151.975C472.361 151.975 478.633 163.092 483.267 169.075C487.548 174.494 486.997 177.372 486.445 184.255C485.995 189.177 486.889 198.446 482.494 202.651L478.95 281.883C478.95 281.883 468.198 284.901 467.692 279.838L439.932 179.088L443.249 153.329L472.361 151.975Z" fill="#2F2E41"/>
<path d="M421.014 291.736L414.218 288L425.398 260.009L435.427 265.524L421.014 291.736Z" fill="#9E616A"/>
<path d="M417.576 306.65L412.753 303.999L409.688 302.313L396.898 295.281C396.285 294.944 395.796 294.42 395.501 293.785C395.207 293.151 395.124 292.438 395.263 291.753C395.403 291.067 395.757 290.444 396.276 289.974C396.795 289.505 397.45 289.213 398.146 289.142L412.238 287.704L414.768 283.101L425.159 289.649L417.576 306.65Z" fill="#2F2E41"/>
<path d="M482.773 165.343C482.773 165.343 482.913 178.107 484.091 185.583C485.232 192.394 483.753 199.384 479.953 205.15C477.187 209.246 473.114 213.065 467.237 214.632L425.959 282.355C425.959 282.355 415.083 279.819 417.079 275.139L441.292 173.479L456.609 152.504L482.773 165.343Z" fill="#2F2E41"/>
<path d="M470.958 89.1116L470.866 89.0202L454.477 89.3552L444.13 116.942C444.958 139.253 440.897 148.835 440.897 148.835L442.653 155.495L437.224 188.474L489.424 177.913L483.107 129.233C484.547 122.062 484.191 114.646 482.072 107.646C479.952 100.646 476.134 94.2789 470.958 89.1116Z" fill="#E6E6E6"/>
<path d="M400.706 145.488C401.261 145.657 401.848 145.702 402.423 145.621C402.998 145.539 403.549 145.331 404.035 145.014C404.522 144.696 404.933 144.275 405.239 143.782C405.546 143.288 405.74 142.733 405.809 142.156L419.609 139.139L414.352 134.015L402.054 137.666C401.077 137.615 400.115 137.924 399.35 138.534C398.585 139.145 398.071 140.014 397.905 140.978C397.739 141.943 397.932 142.934 398.448 143.765C398.965 144.597 399.768 145.21 400.706 145.488Z" fill="#9E616A"/>
<path d="M409.26 141.534L408.593 133.244L433.682 126.42L452.353 103.244C453.276 102.099 454.439 101.17 455.761 100.525C457.083 99.8801 458.531 99.5339 460.002 99.5112C461.473 99.4885 462.931 99.7899 464.272 100.394C465.613 100.998 466.805 101.89 467.763 103.007C469.491 105.025 470.347 107.647 470.145 110.296C469.942 112.945 468.696 115.406 466.682 117.138L441.239 138.963L409.26 141.534Z" fill="#E6E6E6"/>
<path d="M446.28 57.6841C447.457 53.3551 450.235 49.6352 454.051 47.2779C457.868 44.9206 462.438 44.1022 466.836 44.9886C471.233 45.8749 475.129 48.3997 477.735 52.0514C480.341 55.7032 481.461 60.2088 480.868 64.6555C480.276 69.1022 478.016 73.1575 474.545 75.9999C471.074 78.8422 466.653 80.2591 462.177 79.9634C457.701 79.6677 453.504 77.6816 450.438 74.4074C447.371 71.1332 445.664 66.8158 445.661 62.3298C445.661 60.7606 445.869 59.1983 446.28 57.6841Z" fill="#9E616A"/>
<path d="M452.098 39.0543C453.531 39.0118 471.365 39.927 473.869 39.9641C476.374 40.0011 478.914 39.9172 481.343 40.5301C483.771 41.1429 486.134 42.5839 487.171 44.8636C488.209 47.1433 488.449 52.8027 489.057 54.452C489.555 56.1437 489.685 57.9225 489.438 59.6686C488.944 66.1343 487.739 73.0953 483.031 77.5543C479.443 80.9527 474.307 82.3218 469.365 82.302C464.423 82.2822 465.292 81.8279 460.514 80.5666C460.514 80.5666 455.971 67.543 457.115 66.2618C458.259 64.9806 459.209 63.3412 459.002 61.6362C458.795 59.9311 456.962 58.4038 455.372 59.0528C455.639 58.3692 455.841 58.239 455.967 58.2737C455.887 58.0795 455.817 57.8811 455.757 57.6796C455.458 56.6523 454.919 55.7107 454.185 54.9323C453.451 54.1538 452.542 53.5607 451.534 53.2017C450.516 52.8712 449.421 52.8603 448.397 53.1704C447.372 53.4804 446.467 54.0966 445.803 54.9362C440.571 50.029 443.817 39.3002 452.098 39.0543Z" fill="#2F2E41"/>
<path d="M175.778 144.204C198.688 141.202 224.264 138.142 244.313 152.273C252.387 157.964 258.706 166.195 260.634 176.015C261.853 182.223 261.465 188.601 261.544 194.888C261.614 200.518 262.12 206.136 264.018 211.473C267.226 220.497 273.514 228.161 281.292 233.662C289.732 239.54 299.728 242.775 310.011 242.958C332.779 243.526 353.537 231.181 368.031 214.342C383.597 196.257 392.526 173.828 400.318 151.569C401.345 148.634 402.362 145.696 403.369 142.754C403.812 141.467 401.775 140.915 401.335 142.193C393.548 164.82 385.563 187.909 371.046 207.248C357.733 224.984 338.379 239.083 315.682 240.713C305.335 241.456 294.925 239.418 285.938 234.15C277.687 229.313 270.775 222.028 266.952 213.21C264.895 208.208 263.796 202.863 263.713 197.455C263.484 191.195 263.944 184.903 263.172 178.669C261.935 168.677 256.86 159.961 249.241 153.449C241.544 147.029 232.305 142.729 222.436 140.975C210.148 138.659 197.568 139.464 185.228 140.904C182.074 141.272 178.926 141.682 175.778 142.095C174.451 142.269 174.433 144.38 175.778 144.204Z" fill="#3F3D56"/>
<path d="M364.13 93.1329C360.115 97.3941 354.279 99.6512 348.443 100.101C344.259 100.423 340.054 99.8836 336.087 98.516C332.121 97.1483 328.477 94.9816 325.38 92.1497C322.284 89.3179 319.802 85.881 318.087 82.0518C316.372 78.2225 315.46 74.0821 315.408 69.8865C315.345 65.1753 316.372 60.4853 316.14 55.7741C315.563 44.1368 307.392 33.5613 308.264 21.9381L313.861 23.6749C310.107 22.4936 306.352 21.3123 302.597 20.131C301.309 19.7869 300.074 19.2688 298.926 18.5911C295.65 16.4394 294.686 11.6931 296.261 8.09996C297.843 4.50682 301.493 2.10201 305.339 1.30041C307.957 0.803453 310.646 0.820175 313.257 1.34964C314.506 1.57246 315.742 1.87067 316.955 2.24265C320.495 1.07624 324.253 0.730902 327.946 1.23284C331.638 1.73478 335.168 3.07082 338.268 5.13966C342.035 7.72936 345.002 11.3222 346.832 15.5113C348.003 18.1539 348.686 20.9862 348.851 23.8718C349.272 31.719 345.925 39.8475 346.404 47.4276C346.506 49.5008 346.97 51.5401 347.775 53.4536C351.923 63.108 364.967 66.9262 368.237 76.918C370.058 82.4801 368.145 88.8718 364.13 93.1329Z" fill="#2F2E41"/>
<path d="M367.18 244.014L361.795 249.594L337.706 231.48L345.654 223.243L367.18 244.014Z" fill="#9E616A"/>
<path d="M380.674 251.236L376.853 255.196L374.425 257.713L364.29 268.217C363.805 268.721 363.171 269.056 362.481 269.174C361.791 269.291 361.082 269.185 360.457 268.872C359.832 268.558 359.323 268.052 359.006 267.429C358.688 266.805 358.578 266.097 358.692 265.406L360.992 251.429L357.211 247.782L366.25 239.467L380.674 251.236Z" fill="#2F2E41"/>
<path d="M315.421 254.645L308.439 258.023L292.091 232.7L302.395 227.716L315.421 254.645Z" fill="#9E616A"/>
<path d="M325.588 266.085L320.635 268.481L317.486 270.005L304.347 276.36C303.717 276.665 303.006 276.761 302.318 276.633C301.63 276.505 301.001 276.161 300.523 275.65C300.045 275.139 299.742 274.489 299.66 273.794C299.577 273.1 299.719 272.397 300.064 271.788L307.051 259.466L304.764 254.738L316.118 250.058L325.588 266.085Z" fill="#2F2E41"/>
<path d="M326.808 114.707C326.808 114.707 333.08 125.824 337.714 131.808C341.995 137.227 341.443 140.104 340.891 146.988C340.441 151.91 341.335 161.179 336.94 165.384L335.019 208.324L358.71 235.475C358.71 235.475 349.132 249.086 348.626 244.024L313.553 211.412L294.378 141.821L297.695 116.062L326.808 114.707Z" fill="#2F2E41"/>
<path d="M337.219 128.076C337.219 128.076 337.359 140.839 338.537 148.315C339.678 155.126 338.199 162.116 334.399 167.882C331.633 171.979 327.56 175.797 321.683 177.365L301.588 210.334L312.75 242.275C312.75 242.275 296.706 251.517 298.701 246.836L279.281 205.307L295.738 136.211L311.055 115.237L337.219 128.076Z" fill="#2F2E41"/>
<path d="M325.404 51.8442L325.313 51.7528L308.923 52.0878L298.576 79.6744C299.405 101.986 295.343 111.567 295.343 111.567L297.099 118.227L297.82 120.183L343.87 140.645L337.553 91.9655C338.993 84.7947 338.638 77.379 336.518 70.3789C334.398 63.3788 330.58 57.0116 325.404 51.8442Z" fill="#6C63FF"/>
<path d="M255.152 108.221C255.708 108.39 256.294 108.435 256.869 108.353C257.445 108.271 257.995 108.064 258.482 107.746C258.968 107.429 259.379 107.008 259.686 106.514C259.992 106.021 260.187 105.466 260.256 104.889L274.055 101.871L268.798 96.748L256.5 100.399C255.523 100.347 254.561 100.656 253.796 101.267C253.032 101.877 252.518 102.747 252.352 103.711C252.185 104.675 252.379 105.667 252.895 106.498C253.411 107.329 254.214 107.942 255.152 108.221Z" fill="#9E616A"/>
<path d="M263.706 104.266L263.04 95.9763L288.128 89.1524L306.799 65.9769C307.722 64.8314 308.886 63.9031 310.208 63.2579C311.53 62.6127 312.978 62.2665 314.448 62.2438C315.919 62.2211 317.377 62.5225 318.718 63.1266C320.06 63.7307 321.252 64.6226 322.209 65.7391C323.937 67.7577 324.794 70.3792 324.591 73.0285C324.388 75.6778 323.143 78.1385 321.128 79.8706L295.685 101.696L263.706 104.266Z" fill="#6C63FF"/>
<path d="M361.339 141.849C361.563 141.312 361.667 140.734 361.643 140.153C361.619 139.572 361.468 139.004 361.201 138.488C360.934 137.972 360.557 137.521 360.097 137.166C359.636 136.812 359.104 136.562 358.536 136.436L356.921 122.403L351.296 127.118L353.692 139.721C353.542 140.688 353.753 141.676 354.283 142.498C354.814 143.32 355.628 143.919 356.57 144.181C357.513 144.444 358.519 144.351 359.398 143.921C360.277 143.491 360.967 142.754 361.339 141.849Z" fill="#9E616A"/>
<path d="M358.264 132.94L349.949 132.77L345.681 107.123L324.5 86.217C323.453 85.1836 322.646 83.9324 322.137 82.5522C321.628 81.172 321.429 79.6967 321.554 78.2309C321.68 76.7652 322.126 75.3451 322.862 74.0713C323.598 72.7975 324.605 71.7013 325.812 70.8605C327.994 69.3444 330.689 68.7558 333.304 69.2239C335.92 69.6919 338.243 71.1784 339.763 73.3571L358.92 100.864L358.264 132.94Z" fill="#6C63FF"/>
<path d="M300.726 20.4167C301.903 16.0877 304.681 12.3678 308.498 10.0105C312.314 7.65318 316.884 6.83481 321.282 7.72115C325.68 8.6075 329.576 11.1323 332.181 14.784C334.787 18.4358 335.907 22.9414 335.315 27.3881C334.722 31.8348 332.462 35.8901 328.991 38.7325C325.521 41.5748 321.099 42.9917 316.623 42.696C312.147 42.4003 307.95 40.4142 304.884 37.14C301.817 33.8658 300.11 29.5484 300.108 25.0624C300.107 23.4932 300.315 21.9309 300.726 20.4167Z" fill="#9E616A"/>
<path d="M298.48 122.965C295.393 122.954 292.355 122.197 289.623 120.76C286.892 119.322 284.548 117.246 282.792 114.708C281.818 113.239 280.977 111.417 281.545 109.636C281.698 109.011 282.072 108.462 282.598 108.091C283.124 107.72 283.767 107.552 284.407 107.619C285.796 107.813 286.99 108.875 287.921 109.848C289.18 111.239 290.336 112.72 291.379 114.279C293.03 116.612 296.244 120.389 293.759 123.183C291.669 125.533 288.154 125.732 285.341 126.579C282.301 127.495 279.189 129.549 278.916 133.014C278.65 136.383 281.887 138.657 284.872 139.145C286.657 139.399 288.477 139.212 290.173 138.6C291.868 137.987 293.388 136.969 294.599 135.633C296.966 132.896 298.259 129.391 298.235 125.772C298.231 125.498 298.12 125.237 297.927 125.044C297.733 124.85 297.472 124.739 297.198 124.735C296.925 124.73 296.66 124.831 296.46 125.018C296.26 125.205 296.14 125.462 296.126 125.735C296.074 129.031 294.994 132.398 292.552 134.708C290.266 136.871 286.634 137.901 283.655 136.628C282.182 135.998 280.811 134.671 281.039 132.946C281.249 131.363 282.535 130.123 283.879 129.408C286.919 127.791 290.57 127.934 293.535 126.068C296.363 124.289 297.49 121.313 296.206 118.157C295.397 116.406 294.392 114.753 293.209 113.229C292.126 111.629 290.946 110.096 289.676 108.639C287.77 106.545 284.783 104.515 281.913 106.01C278.643 107.714 278.861 111.988 280.374 114.784C283.825 121.159 291.329 125.047 298.443 125.074C298.716 125.07 298.977 124.959 299.171 124.765C299.364 124.572 299.475 124.311 299.48 124.037C299.485 123.764 299.383 123.499 299.196 123.299C299.01 123.099 298.753 122.979 298.48 122.965Z" fill="#2F2E41"/>
<path d="M346.404 47.4276L318.376 41.6969C317.356 36.3177 326.772 29.0681 329.219 20.2294C324.845 19.7021 318.988 18.8231 313.918 17.677C308.848 16.5238 304.559 15.1104 303.321 13.5002C304.22 9.11492 306.823 5.26585 310.558 2.79892C314.294 0.331986 318.856 -0.550961 323.242 0.344119L326.68 1.04728C326.793 1.06837 326.905 1.0965 327.018 1.12463C331.233 2.06769 334.922 4.5986 337.319 8.19137C340.841 10.1382 344.048 12.606 346.833 15.5113C348.003 18.1539 348.687 20.9862 348.851 23.8718C349.273 31.7191 345.926 39.8476 346.404 47.4276Z" fill="#2F2E41"/>
<path d="M608 307.917C608 308.027 607.979 308.136 607.937 308.238C607.895 308.339 607.833 308.432 607.756 308.509C607.678 308.587 607.586 308.649 607.484 308.691C607.382 308.733 607.273 308.754 607.163 308.754H0.83676C0.614838 308.754 0.402013 308.666 0.24509 308.509C0.0881678 308.352 0 308.139 0 307.917C0 307.695 0.0881678 307.482 0.24509 307.325C0.402013 307.168 0.614838 307.08 0.83676 307.08H607.163C607.273 307.08 607.382 307.101 607.484 307.143C607.586 307.185 607.678 307.247 607.756 307.325C607.833 307.402 607.895 307.495 607.937 307.596C607.979 307.698 608 307.807 608 307.917Z" fill="#CCCCCC"/>
</g>
<defs>
<clipPath id="clip0_258_170">
<rect width="608" height="308.754" fill="white"/>
</clipPath>
</defs>
</svg>
