<svg width="130" height="48" viewBox="0 0 130 48" fill="none" xmlns="http://www.w3.org/2000/svg">
<rect width="48" height="48" fill="white"/>
<rect x="12.5" y="12.5" width="23" height="23" rx="3.5" fill="white" stroke="black"/>
<path d="M24 17L21 22.4167L27 24.5833L23.5 30" stroke="black" stroke-width="4"/>
<path d="M24 17L21 22.5L27 24.5L23.5 30" stroke="#E5ED00"/>
<path d="M53.608 32V15.2H64.552V17.816H56.848V22.304H63.04V24.848H56.848V32H53.608ZM66.8119 32.12C66.2039 32.12 65.7159 31.944 65.3479 31.592C64.9799 31.224 64.7959 30.776 64.7959 30.248C64.7959 29.72 64.9799 29.28 65.3479 28.928C65.7159 28.56 66.2039 28.376 66.8119 28.376C67.4039 28.376 67.8839 28.56 68.2519 28.928C68.6199 29.28 68.8039 29.72 68.8039 30.248C68.8039 30.776 68.6199 31.224 68.2519 31.592C67.8839 31.944 67.4039 32.12 66.8119 32.12ZM70.2936 32L76.4136 15.2H80.0856L86.2296 32H82.7976L78.2376 18.896L73.6776 32H70.2936ZM73.0056 28.184L73.8456 25.664H82.4136L83.2536 28.184H73.0056ZM89.7104 32.12C89.1024 32.12 88.6144 31.944 88.2464 31.592C87.8784 31.224 87.6944 30.776 87.6944 30.248C87.6944 29.72 87.8784 29.28 88.2464 28.928C88.6144 28.56 89.1024 28.376 89.7104 28.376C90.3024 28.376 90.7824 28.56 91.1504 28.928C91.5184 29.28 91.7024 29.72 91.7024 30.248C91.7024 30.776 91.5184 31.224 91.1504 31.592C90.7824 31.944 90.3024 32.12 89.7104 32.12ZM100.056 32.288C98.8401 32.288 97.7521 32.08 96.7921 31.664C95.8481 31.248 95.1041 30.64 94.5601 29.84C94.0161 29.04 93.7281 28.072 93.6961 26.936H97.1281C97.1441 27.432 97.2721 27.88 97.5121 28.28C97.7521 28.68 98.0881 29 98.5201 29.24C98.9521 29.464 99.4641 29.576 100.056 29.576C100.552 29.576 100.984 29.496 101.352 29.336C101.736 29.16 102.032 28.92 102.24 28.616C102.464 28.312 102.576 27.952 102.576 27.536C102.576 27.04 102.448 26.632 102.192 26.312C101.952 25.976 101.624 25.704 101.208 25.496C100.792 25.272 100.312 25.072 99.7681 24.896C99.2401 24.704 98.6801 24.512 98.0881 24.32C96.7921 23.872 95.8001 23.296 95.1121 22.592C94.4241 21.872 94.0801 20.92 94.0801 19.736C94.0801 18.728 94.3201 17.864 94.8001 17.144C95.2801 16.424 95.9521 15.872 96.8161 15.488C97.6801 15.104 98.6641 14.912 99.7681 14.912C100.904 14.912 101.904 15.112 102.768 15.512C103.632 15.896 104.312 16.456 104.808 17.192C105.304 17.928 105.568 18.792 105.6 19.784H102.12C102.104 19.416 102 19.072 101.808 18.752C101.616 18.416 101.344 18.152 100.992 17.96C100.64 17.752 100.216 17.648 99.7201 17.648C99.3041 17.632 98.9281 17.696 98.5921 17.84C98.2561 17.984 97.9841 18.2 97.7761 18.488C97.5841 18.76 97.4881 19.104 97.4881 19.52C97.4881 19.92 97.5841 20.256 97.7761 20.528C97.9681 20.8 98.2401 21.04 98.5921 21.248C98.9441 21.44 99.3601 21.624 99.8401 21.8C100.32 21.96 100.84 22.128 101.4 22.304C102.248 22.592 103.016 22.936 103.704 23.336C104.408 23.72 104.968 24.224 105.384 24.848C105.8 25.472 106.008 26.296 106.008 27.32C106.008 28.2 105.776 29.016 105.312 29.768C104.864 30.52 104.2 31.128 103.32 31.592C102.44 32.056 101.352 32.288 100.056 32.288ZM110.031 32.12C109.423 32.12 108.935 31.944 108.567 31.592C108.199 31.224 108.015 30.776 108.015 30.248C108.015 29.72 108.199 29.28 108.567 28.928C108.935 28.56 109.423 28.376 110.031 28.376C110.623 28.376 111.103 28.56 111.471 28.928C111.839 29.28 112.023 29.72 112.023 30.248C112.023 30.776 111.839 31.224 111.471 31.592C111.103 31.944 110.623 32.12 110.031 32.12ZM116.607 32V17.816H111.687V15.2H124.743V17.816H119.823V32H116.607ZM126.414 32.12C125.806 32.12 125.318 31.944 124.95 31.592C124.582 31.224 124.398 30.776 124.398 30.248C124.398 29.72 124.582 29.28 124.95 28.928C125.318 28.56 125.806 28.376 126.414 28.376C127.006 28.376 127.486 28.56 127.854 28.928C128.222 29.28 128.406 29.72 128.406 30.248C128.406 30.776 128.222 31.224 127.854 31.592C127.486 31.944 127.006 32.12 126.414 32.12Z" fill="black"/>
</svg>
