<svg width="598" height="429" viewBox="0 0 598 429" fill="none" xmlns="http://www.w3.org/2000/svg">
<path d="M0 67.5591C0 30.2472 28.9964 0 64.7653 0H257.982C293.751 0 322.747 30.2472 322.747 67.5591V218.441C322.747 255.753 293.751 286 257.982 286H64.7653C28.9964 286 0 255.753 0 218.441V67.5591Z" fill="white"/>
<path d="M25.9061 82.0816C25.9061 51.6739 49.9567 27.0236 79.6245 27.0236H239.884C269.552 27.0236 293.603 51.6739 293.603 82.0816V205.044C293.603 235.452 269.552 260.102 239.884 260.102H79.6245C49.9567 260.102 25.9061 235.452 25.9061 205.044V82.0816Z" fill="white"/>
<path d="M58.2888 96.6662C58.2888 73.7503 76.4237 55.1732 98.7942 55.1732H219.635C242.006 55.1732 260.141 73.7503 260.141 96.6662V189.334C260.141 212.25 242.006 230.827 219.635 230.827H98.7942C76.4237 230.827 58.2888 212.25 58.2888 189.334V96.6662Z" fill="white"/>
<path d="M87.4332 110.923C87.4332 95.0579 100.234 82.1968 116.025 82.1968H201.325C217.116 82.1968 229.917 95.0579 229.917 110.923V175.077C229.917 190.942 217.116 203.803 201.325 203.803H116.025C100.234 203.803 87.4332 190.942 87.4332 175.077V110.923Z" fill="#121112"/>
<path fill-rule="evenodd" clip-rule="evenodd" d="M257.982 5.62992H64.7653C31.9772 5.62992 5.39711 33.3565 5.39711 67.5591V218.441C5.39711 252.643 31.9772 280.37 64.7653 280.37H257.982C290.77 280.37 317.35 252.643 317.35 218.441V67.5591C317.35 33.3565 290.77 5.62992 257.982 5.62992ZM64.7653 0C28.9964 0 0 30.2472 0 67.5591V218.441C0 255.753 28.9964 286 64.7653 286H257.982C293.751 286 322.747 255.753 322.747 218.441V67.5591C322.747 30.2472 293.751 0 257.982 0H64.7653Z" fill="black"/>
<path d="M275.253 199.299C275.253 168.206 299.416 143 329.224 143H544.029C573.836 143 598 168.206 598 199.299V372.701C598 403.794 573.836 429 544.029 429H329.224C299.416 429 275.253 403.794 275.253 372.701V199.299Z" fill="white"/>
<path d="M283.888 208.307C283.888 189.651 298.386 174.528 316.271 174.528H551.585C569.469 174.528 583.967 189.651 583.967 208.307C583.967 226.963 569.469 242.087 551.585 242.087H316.271C298.386 242.087 283.888 226.963 283.888 208.307Z" fill="#121112"/>
<path d="M287.126 286C287.126 267.344 301.625 252.22 319.509 252.22H554.823C572.708 252.22 587.206 267.344 587.206 286C587.206 304.656 572.708 319.78 554.823 319.78H319.509C301.625 319.78 287.126 304.656 287.126 286Z" fill="#121112"/>
<path d="M287.126 363.693C287.126 345.037 301.625 329.913 319.509 329.913H554.823C572.708 329.913 587.206 345.037 587.206 363.693C587.206 382.349 572.708 397.472 554.823 397.472H319.509C301.625 397.472 287.126 382.349 287.126 363.693Z" fill="#121112"/>
<path d="M572.094 208.87C572.094 219.753 563.637 228.575 553.204 228.575C542.771 228.575 534.314 219.753 534.314 208.87C534.314 197.987 542.771 189.165 553.204 189.165C563.637 189.165 572.094 197.987 572.094 208.87Z" fill="#4DFF34"/>
<path d="M572.094 286.563C572.094 297.446 563.637 306.268 553.204 306.268C542.771 306.268 534.314 297.446 534.314 286.563C534.314 275.68 542.771 266.858 553.204 266.858C563.637 266.858 572.094 275.68 572.094 286.563Z" fill="#4DFF34"/>
<path d="M572.094 364.256C572.094 375.139 563.637 383.961 553.204 383.961C542.771 383.961 534.314 375.139 534.314 364.256C534.314 353.373 542.771 344.551 553.204 344.551C563.637 344.551 572.094 353.373 572.094 364.256Z" fill="#4DFF34"/>
</svg>
