<svg width="316" height="336" viewBox="0 0 316 336" fill="none" xmlns="http://www.w3.org/2000/svg">
<g clip-path="url(#clip0_248_3)">
<path d="M127.51 270.548C126.921 269.537 124.373 270.62 123.905 269.702C123.438 268.788 125.806 267.394 127.158 264.211C127.402 263.637 128.939 260.019 127.801 258.903C125.644 256.787 115.774 265.518 112.32 262.661C111.562 262.034 111.033 260.782 108.738 258.749C107.826 257.941 107.274 257.576 106.74 257.712C105.982 257.904 105.922 258.937 105.109 260.968C103.89 264.014 103.169 263.83 102.459 266.26C101.932 268.064 102.053 269.113 101.432 269.317C100.555 269.606 99.7465 267.693 98.6341 267.864C97.4989 268.039 96.8126 270.267 96.5958 271.935C96.189 275.065 97.3178 277.131 97.9435 279.303C98.6234 281.663 99.027 285.252 97.4568 290.334L81.9154 334.925C85.3465 325.775 95.281 300.693 99.4555 291.372C100.661 288.681 101.991 285.952 104.723 284.875C107.354 283.838 110.966 284.457 115.572 283.327C116.11 283.195 117.602 282.808 117.79 281.914C117.945 281.175 117.067 280.763 117.202 280.07C117.383 279.142 119.11 279.13 121.231 278.059C122.728 277.304 123.66 276.405 124.461 275.633C124.703 275.4 128.295 271.895 127.51 270.548Z" fill="#F2F2F2"/>
<path d="M66.3659 294.023C65.7085 294.025 65.4953 295.612 64.9177 295.581C64.3422 295.55 64.3537 293.965 63.2097 292.37C63.0034 292.083 61.7033 290.271 60.8369 290.517C59.1948 290.985 60.5554 298.437 58.1816 299.339C57.6606 299.537 56.9044 299.441 55.2629 300.001C54.6098 300.224 54.2746 300.394 54.186 300.7C54.0602 301.135 54.5407 301.463 55.2851 302.455C56.4014 303.943 56.1048 304.25 57.0711 305.306C57.7884 306.09 58.3287 306.333 58.2482 306.702C58.1343 307.224 56.9789 307.076 56.7405 307.681C56.4973 308.299 57.373 309.285 58.1144 309.874C59.5057 310.981 60.8269 311.013 62.0542 311.327C63.3879 311.668 65.2344 312.502 67.2305 314.753L84.2377 335.386C80.8177 331.031 71.5952 318.829 68.3074 314.053C67.3582 312.675 66.4268 311.222 66.6959 309.546C66.9551 307.932 68.2958 306.305 69.0801 303.677C69.1717 303.37 69.416 302.512 69.0393 302.161C68.7279 301.87 68.2757 302.19 67.981 301.922C67.5857 301.564 68.0784 300.698 68.1742 299.328C68.2418 298.363 68.0777 297.638 67.9366 297.014C67.8941 296.826 67.2411 294.019 66.3659 294.023Z" fill="#F2F2F2"/>
<path d="M79.4812 297.021L79.0851 293.42L79.266 293.147C80.1035 291.885 80.5303 290.653 80.5354 289.483C80.5362 289.297 80.5277 289.111 80.5192 288.921C80.485 288.17 80.4424 287.236 80.9204 286.148C81.1884 285.541 81.9413 284.136 83.0732 284.31C83.378 284.354 83.6085 284.496 83.7835 284.663C83.8091 284.622 83.8355 284.58 83.8637 284.535C84.2163 283.987 84.4954 283.752 84.7643 283.526C84.9709 283.352 85.1843 283.173 85.5189 282.749C85.6657 282.563 85.7801 282.4 85.8766 282.262C86.1694 281.847 86.5518 281.351 87.2262 281.36C87.9466 281.395 88.3239 282.002 88.574 282.403C89.0205 283.119 89.2228 283.636 89.3568 283.978C89.4055 284.103 89.461 284.244 89.4891 284.288C89.7213 284.635 91.6087 284.31 92.3198 284.192C93.9169 283.921 95.2989 283.686 95.8683 284.712C96.2764 285.446 95.9733 286.416 94.9404 287.673C94.6186 288.064 94.2763 288.361 93.9724 288.594C94.2242 288.747 94.4496 288.982 94.5409 289.35C94.756 290.223 94.0194 291.098 92.3522 291.953C91.9382 292.167 91.3808 292.452 90.5997 292.589C90.2318 292.654 89.9006 292.669 89.6172 292.678C89.6112 292.845 89.5728 293.026 89.4729 293.212C89.1801 293.759 88.5707 294.02 87.6521 293.958C86.6414 293.904 85.8091 293.707 85.075 293.535C84.434 293.386 83.8816 293.259 83.448 293.288C82.6439 293.354 82.0241 294.01 81.2969 294.86L79.4812 297.021Z" fill="#F2F2F2"/>
<path d="M81.3187 275.583L77.999 276.887L77.6939 276.778C76.2825 276.273 75.0034 276.165 73.8907 276.457C73.7138 276.503 73.5392 276.559 73.3614 276.615C72.6566 276.839 71.7806 277.118 70.6256 276.923C69.9813 276.813 68.4559 276.428 68.334 275.269C68.298 274.958 68.3749 274.695 68.4891 274.48C68.4429 274.465 68.3966 274.45 68.3465 274.433C67.7369 274.225 67.4431 274.01 67.1602 273.802C66.9427 273.643 66.7185 273.478 66.2306 273.256C66.0167 273.158 65.8325 273.087 65.6775 273.027C65.2086 272.844 64.6409 272.593 64.4781 271.927C64.3284 271.208 64.8091 270.682 65.1271 270.334C65.6942 269.713 66.1334 269.382 66.4247 269.164C66.5313 269.084 66.651 268.994 66.6851 268.955C66.9565 268.638 66.169 266.861 65.8763 266.191C65.2136 264.686 64.6401 263.385 65.47 262.563C66.0634 261.975 67.0618 262.028 68.5178 262.726C68.971 262.944 69.3402 263.206 69.6386 263.446C69.72 263.159 69.8858 262.878 70.2127 262.694C70.9872 262.261 72.0047 262.765 73.2401 264.19C73.5482 264.544 73.9605 265.021 74.289 265.755C74.4435 266.101 74.5423 266.423 74.6225 266.7C74.7826 266.664 74.964 266.656 75.1661 266.707C75.7605 266.857 76.1629 267.391 76.3364 268.312C76.5415 269.321 76.566 270.19 76.5888 270.957C76.6094 271.627 76.6289 272.203 76.767 272.623C77.0337 273.398 77.8135 273.842 78.8055 274.343L81.3187 275.583Z" fill="#F2F2F2"/>
<path d="M79.4812 264.976L79.0851 261.375L79.266 261.102C80.1035 259.84 80.5303 258.607 80.5354 257.437C80.5362 257.251 80.5277 257.065 80.5192 256.876C80.485 256.125 80.4424 255.191 80.9204 254.103C81.1884 253.496 81.9413 252.091 83.0732 252.265C83.378 252.309 83.6085 252.451 83.7835 252.618C83.8091 252.576 83.8355 252.535 83.8637 252.489C84.2163 251.942 84.4954 251.707 84.7643 251.481C84.9709 251.307 85.1843 251.128 85.5189 250.704C85.6657 250.518 85.7801 250.354 85.8766 250.217C86.1694 249.802 86.5518 249.306 87.2262 249.315C87.9466 249.349 88.3239 249.956 88.574 250.358C89.0205 251.074 89.2228 251.59 89.3568 251.933C89.4055 252.058 89.461 252.199 89.4891 252.242C89.7213 252.59 91.6087 252.265 92.3198 252.147C93.9169 251.876 95.2989 251.641 95.8683 252.667C96.2764 253.4 95.9733 254.37 94.9404 255.627C94.6186 256.019 94.2763 256.316 93.9724 256.549C94.2242 256.702 94.4496 256.937 94.5409 257.305C94.756 258.178 94.0194 259.052 92.3522 259.908C91.9382 260.122 91.3808 260.407 90.5997 260.544C90.2318 260.608 89.9006 260.624 89.6172 260.633C89.6112 260.8 89.5728 260.981 89.4729 261.167C89.1801 261.714 88.5707 261.975 87.6521 261.912C86.6414 261.858 85.8091 261.662 85.075 261.49C84.434 261.34 83.8816 261.213 83.448 261.243C82.6439 261.309 82.0241 261.965 81.2969 262.815L79.4812 264.976Z" fill="#F2F2F2"/>
<path d="M83.0988 334.866L82.3579 334.393L81.494 334.494C81.4803 334.412 81.4334 334.225 81.3626 333.931C80.9759 332.321 79.797 327.422 78.8136 319.706C78.1273 314.32 77.7389 308.782 77.6586 303.245C77.5784 297.699 77.8362 293.5 78.0428 290.126C78.199 287.581 78.3885 285.157 78.5746 282.796C79.0697 276.489 79.5366 270.53 79.1892 263.934C79.1124 262.462 78.951 259.397 77.1926 256.135C76.1725 254.244 74.7674 252.564 73.0157 251.145L74.105 249.751C76.0384 251.319 77.5929 253.18 78.7257 255.28C80.6754 258.896 80.8512 262.236 80.9357 263.84C81.2891 270.553 80.8171 276.569 80.3168 282.937C80.1325 285.289 79.9429 287.702 79.7876 290.237C79.5827 293.58 79.3275 297.743 79.4069 303.217C79.4854 308.689 79.8695 314.158 80.5465 319.476C81.5179 327.095 82.6797 331.921 83.0613 333.507C83.2644 334.353 83.3071 334.531 83.0988 334.866Z" fill="#F2F2F2"/>
<path d="M69.8097 253.974C69.738 253.974 69.6655 253.972 69.592 253.967C68.1033 253.885 66.7247 252.978 65.4938 251.271C64.9167 250.467 64.6214 249.551 64.0324 247.724C63.941 247.442 63.4971 246.013 63.2274 244.047C63.0507 242.762 63.0729 242.225 63.323 241.75C63.6004 241.222 64.0494 240.853 64.5548 240.605C64.5326 240.434 64.5505 240.259 64.6231 240.079C64.921 239.337 65.7131 239.434 66.1417 239.481C66.3585 239.509 66.6291 239.546 66.9211 239.53C67.3803 239.507 67.627 239.368 68.0009 239.16C68.3586 238.96 68.8033 238.711 69.4632 238.574C70.7641 238.297 71.8542 238.673 72.2135 238.796C74.1043 239.438 75.0365 240.935 76.1155 242.668C76.3306 243.016 77.069 244.282 77.5564 246.017C77.9081 247.268 77.8586 247.825 77.7527 248.239C77.5376 249.089 77.0297 249.575 75.7399 250.65C74.3929 251.775 73.7168 252.338 73.1363 252.681C71.785 253.475 70.9365 253.974 69.8097 253.974Z" fill="#F2F2F2"/>
<path d="M151.702 331.819L156.28 331.819L158.458 313.836L151.701 313.836L151.702 331.819Z" fill="#FFB6B6"/>
<path d="M167.387 331.713C167.53 331.958 167.605 332.747 167.605 333.031C167.605 333.905 166.909 334.614 166.051 334.614H151.873C151.288 334.614 150.813 334.13 150.813 333.534V332.933C150.813 332.933 150.112 331.126 151.556 328.9C151.556 328.9 153.35 330.643 156.032 327.912L156.823 326.453L162.548 330.717L165.721 331.114C166.415 331.201 167.03 331.101 167.387 331.713Z" fill="#2F2E41"/>
<path d="M137.749 331.819L142.327 331.819L144.505 313.836L137.748 313.836L137.749 331.819Z" fill="#FFB6B6"/>
<path d="M153.435 331.713C153.577 331.958 153.652 332.747 153.652 333.031C153.652 333.905 152.957 334.614 152.099 334.614H137.921C137.335 334.614 136.86 334.13 136.86 333.534V332.933C136.86 332.933 136.159 331.126 137.603 328.9C137.603 328.9 139.398 330.643 142.08 327.912L142.87 326.453L148.595 330.717L151.768 331.114C152.462 331.201 153.078 331.101 153.435 331.713Z" fill="#2F2E41"/>
<path d="M156.991 254.16L161.874 273.417L159.432 322.87L147.921 323.655L147.224 295.187L145.828 324.492L133.969 321.98L133.271 257.509L156.991 254.16Z" fill="#2F2E41"/>
<path d="M109.716 189.321C108.14 186.505 105.437 185.051 103.677 186.072C101.918 187.094 101.769 190.204 103.346 193.02C103.96 194.154 104.832 195.122 105.89 195.842L112.714 207.686L118.104 204.307L110.804 192.989C110.734 191.695 110.361 190.438 109.716 189.321Z" fill="#FFB6B6"/>
<path d="M140.729 231.134C140.729 231.134 134.261 240.211 130.306 236.968C126.35 233.724 104.495 197.259 104.495 197.259L113.168 192.525L140.729 231.134Z" fill="#6C63FF"/>
<path d="M134.666 220.059L143.038 207.271L151.41 210.824L149.317 222.19L134.666 220.059Z" fill="#FFB6B6"/>
<path d="M135.364 217.217L150.014 216.507L159.781 219.349L161.874 271.92L132.573 269.079V241.355L128.387 227.163L135.364 217.217Z" fill="#6C63FF"/>
<path d="M159.542 252.679C159.027 251.15 158.822 249.536 158.955 247.925C159.33 243.38 159.401 234.474 154.851 230.45L152.281 227.615C152.228 227.557 152.168 227.506 152.113 227.448L156.365 217.271L153.796 216.159L149.85 225.605C148.1 224.521 146.081 223.92 143.992 223.92C141.581 223.92 139.275 224.721 137.37 226.131L134.963 217.152L132.271 217.9L135.28 228.141C135.171 228.277 135.051 228.402 134.947 228.543L133.477 230.553C133.119 231.042 132.724 231.496 132.296 231.923C131.394 232.823 129.633 235.008 129.616 238.373C129.61 239.524 129.378 240.662 129.033 241.758L127.286 247.319C127.122 247.841 126.993 248.373 126.906 248.914C126.135 253.676 123.468 276.111 141.696 275.662C158.688 275.243 159.807 264.707 159.708 261.207C159.686 260.448 159.753 259.694 159.892 258.948C160.147 257.579 160.376 255.157 159.542 252.679Z" fill="#3F3D56"/>
<path d="M236.306 25.5872L237.894 50.5707L217.914 55.2394L219.305 35.0392L236.306 25.5872Z" fill="#FFB6B6"/>
<path d="M237.827 329.219L228.82 329.218L224.536 293.841L237.828 293.842L237.827 329.219Z" fill="#FFB6B6"/>
<path d="M206.969 329.011C206.689 329.492 206.541 331.044 206.541 331.603C206.541 333.322 207.91 334.716 209.598 334.716H237.49C238.641 334.716 239.575 333.765 239.575 332.592V331.41C239.575 331.41 240.955 327.856 238.114 323.475C238.114 323.475 234.583 326.905 229.308 321.533L227.752 318.663L216.49 327.05L210.248 327.832C208.883 328.004 207.672 327.806 206.969 329.011Z" fill="#2F2E41"/>
<path d="M262.244 329.219L253.238 329.218L248.953 293.841L262.246 293.842L262.244 329.219Z" fill="#FFB6B6"/>
<path d="M231.387 329.011C231.106 329.492 230.958 331.044 230.958 331.603C230.958 333.322 232.327 334.716 234.015 334.716H261.907C263.059 334.716 263.992 333.765 263.992 332.592V331.41C263.992 331.41 265.372 327.856 262.531 323.475C262.531 323.475 259.001 326.905 253.725 321.533L252.169 318.663L240.908 327.05L234.666 327.832C233.3 328.004 232.089 327.806 231.387 329.011Z" fill="#2F2E41"/>
<path d="M267.915 161.093C267.915 161.093 275.589 171.039 274.194 176.723C272.798 182.406 263.031 313.125 263.031 313.125L249.079 312.415L240.707 195.194L238.554 313.125L225.359 312.415L208.616 166.066L267.915 161.093Z" fill="#2F2E41"/>
<path d="M187.249 192.806C185.93 197.955 182.251 201.436 179.034 200.58C175.816 199.725 174.277 194.858 175.598 189.707C176.098 187.642 177.076 185.729 178.45 184.128L184.311 162.382L194.273 165.4L187.438 186.517C187.869 188.599 187.804 190.755 187.249 192.806Z" fill="#FFB6B6"/>
<path d="M220.075 46.3198C231.084 46.3198 240.009 37.2312 240.009 26.0199C240.009 14.8086 231.084 5.72009 220.075 5.72009C209.066 5.72009 200.141 14.8086 200.141 26.0199C200.141 37.2312 209.066 46.3198 220.075 46.3198Z" fill="#FFB6B6"/>
<path d="M217.685 51.6873L238.614 47.4247L261.636 59.502L266.519 136.939L272.798 166.066L207.918 166.777L210.709 127.703L206.523 65.8959L217.685 51.6873Z" fill="#E6E6E6"/>
<path d="M212.801 68.0272C212.801 68.0272 201.639 64.475 197.453 70.8689C193.268 77.2628 185.594 134.808 185.594 134.808L177.92 178.144L191.872 180.275L214.894 104.259L212.801 68.0272Z" fill="#E6E6E6"/>
<path d="M314.331 167.9C316.605 172.691 316.021 177.77 313.026 179.243C310.032 180.717 305.762 178.027 303.487 173.234C302.553 171.332 302.079 169.23 302.106 167.103L292.722 146.679L302.228 142.398L310.47 162.987C312.124 164.287 313.448 165.972 314.331 167.9Z" fill="#FFB6B6"/>
<path d="M252.899 60.2384C252.899 60.2384 262.923 54.1051 268.472 59.313C274.021 64.5209 294.808 118.598 294.808 118.598L312.304 158.868L299.239 164.291L259.258 95.9506L252.899 60.2384Z" fill="#E6E6E6"/>
<path d="M301.149 334.782C301.149 335.251 300.779 335.628 300.319 335.628H0.830187C0.369768 335.628 0 335.251 0 334.782C0 334.555 0.0837582 334.356 0.223251 334.207H62.8152C64.1477 334.207 65.4523 334.114 66.7359 333.937H300.319C300.779 333.937 301.149 334.313 301.149 334.782Z" fill="#3F3D56"/>
<path d="M178.527 195.045C179.772 192.062 182.292 190.299 184.156 191.106C186.02 191.913 186.521 194.985 185.275 197.968C184.793 199.167 184.037 200.231 183.069 201.071L177.637 213.64L171.899 210.918L177.863 198.816C177.785 197.523 178.013 196.23 178.527 195.045Z" fill="#FFB6B6"/>
<path d="M142.247 216.713C149.334 216.713 155.079 210.863 155.079 203.646C155.079 196.43 149.334 190.579 142.247 190.579C135.161 190.579 129.416 196.43 129.416 203.646C129.416 210.863 135.161 216.713 142.247 216.713Z" fill="#FFB6B6"/>
<path d="M158.386 219.349L170.943 214.376L175.129 199.457L184.198 203.009L177.222 224.322L158.386 231.65V219.349Z" fill="#6C63FF"/>
<path d="M140.56 218.175L148.213 211.834C148.213 211.834 147.488 202.331 150.24 201.476C152.991 200.622 155.86 197.208 155.86 197.208C155.86 197.208 151.306 186.733 143.291 188.323C135.276 189.912 137.105 187.494 132.166 190.158C127.226 192.822 126.068 196.376 126.669 200.153C127.27 203.929 125.481 213.312 131.464 213.795C137.446 214.278 140.56 218.175 140.56 218.175Z" fill="#2F2E41"/>
<path d="M208.001 30.5647C206.547 27.8632 207.302 26.5736 205.989 25.5175C205.989 25.5175 205.461 25.0926 201.485 24.5513C201.105 17.9261 200.052 17.0407 200.052 17.0407C198.837 16.0203 196.905 16.1625 195.674 16.626C193.069 17.6063 193.16 20.189 191.43 20.5411C189.041 21.0275 195.554 16.8682 195.478 12.4686C195.416 8.87968 197.94 5.60428 198.82 5.85994C199.691 6.11345 202.029 3.52821 203.171 3.66393C203.951 3.75662 207.258 2.60205 208.109 2.78259C209.039 2.97978 212.005 4.87681 212.164 4.51143C213.265 1.97242 213.058 1.22628 213.878 0.540943C215.33 -0.673465 217.462 0.427971 220.883 1.20441C227.92 2.80195 229.35 0.513173 232.87 2.42977C234.648 3.39794 236.017 5.73015 238.682 10.355C242.408 16.8229 244.271 20.0568 244.005 23.6302C243.733 27.2744 242.018 26.9022 240.834 32.2337C239.516 38.1684 241.101 41.06 238.981 42.8506C237.344 44.2344 223.762 44.3409 222.243 42.8859C219.642 40.3947 223.707 35.2248 220.946 30.9813C219.251 28.3765 215.541 26.977 213.707 28.0472C211.633 29.2573 212.401 33.3668 210.989 33.6356C209.779 33.8659 208.255 31.0354 208.001 30.5647Z" fill="#2F2E41"/>
<path d="M111.385 195.71C114.162 193.322 113.424 187.783 109.738 183.339C108.124 181.394 106.213 179.981 104.341 179.208L102.189 176.679L74.4048 141.228C74.4048 141.228 59.0182 105.961 54.4761 102.151C49.9341 98.3406 44.5902 100.324 44.5902 100.324L40.4207 105.577L66.403 154.819L92.9942 182.07L96.5838 185.881C97.02 187.89 98.0684 190.045 99.6821 191.99C103.368 196.434 108.608 198.099 111.385 195.71Z" fill="#FFB6B6"/>
<path d="M58.9377 108.708L65.9005 119.107L75.8963 134.172L57.9356 140.499L42.0776 112.789L58.9377 108.708Z" fill="#E6E6E6"/>
<path d="M66.0067 73.3171L60.9639 92.8955L41.738 89.044C41.738 89.044 49.3023 74.9219 47.4112 68.5027L66.0067 73.3171Z" fill="#FFB6B6"/>
<path d="M45.7115 328.167L57.2892 328.166L62.7968 282.69L45.7092 282.691L45.7115 328.167Z" fill="#FFB6B6"/>
<path d="M85.3781 327.9C85.7385 328.518 85.9288 330.514 85.9288 331.233C85.9288 333.443 84.1695 335.234 81.9992 335.234H46.1446C44.6641 335.234 43.4639 334.012 43.4639 332.504V330.984C43.4639 330.984 41.6902 326.416 45.3419 320.784C45.3419 320.784 49.8805 325.194 56.6623 318.287L58.6623 314.598L73.1388 325.38L81.1629 326.385C82.9185 326.605 84.475 326.351 85.3781 327.9Z" fill="#2F2E41"/>
<path d="M77.8587 196.559L61.9051 307.111H41.8893L44.5508 244.005L45.9516 210.824L41.8893 195.029C41.8893 195.029 40.0371 191.518 38.4767 187.263C36.718 182.46 35.3288 176.703 37.3911 173.973C38.1499 172.966 40.1227 172.221 42.8037 171.666C44.4418 171.326 46.3485 171.06 48.4069 170.854C60.2436 169.661 77.0805 170.406 77.0805 170.406L77.5085 184.79L77.7459 192.822L77.8587 196.559Z" fill="#2F2E41"/>
<path d="M25.3169 322.761L36.7716 324.475L48.7163 280.298L31.8103 277.768L25.3169 322.761Z" fill="#FFB6B6"/>
<path d="M64.5998 328.372C64.8681 329.037 64.7713 331.039 64.6686 331.751C64.3529 333.937 62.3565 335.449 60.2093 335.127L24.736 329.817C23.2712 329.597 22.2583 328.21 22.4737 326.719L22.6908 325.215C22.6908 325.215 21.5886 320.432 26.0058 315.401C26.0058 315.401 29.8663 320.436 37.5625 314.608L40.0681 311.254L52.8507 324.065L60.6458 326.249C62.3513 326.727 63.9276 326.706 64.5998 328.372Z" fill="#2F2E41"/>
<path d="M78.1098 178.122L75.9216 197.312L63.9884 237.751L44.3443 304.327L24.5435 301.364L42.3145 206.702L40.5549 190.47C40.5549 190.47 39.9818 188.857 39.3249 186.495C38.0211 181.821 36.3858 174.211 38.1849 170.329C38.4278 169.802 38.7328 169.344 39.11 168.973C39.8177 168.274 41.2559 167.85 43.1828 167.625C51.2367 166.698 67.8233 169.349 75.2039 170.651L78.1098 178.122Z" fill="#2F2E41"/>
<path d="M62.855 87.1183L84.6023 115.042L80.6986 144.154L77.3532 173.777L37.956 167.679C37.956 167.679 46.4658 146.816 47.4113 145.854C48.3569 144.891 50.7319 147.269 49.0716 144.154C47.4113 141.039 45.5203 141.039 47.0961 139.434C48.672 137.83 34.8042 116.967 34.8042 105.734C34.8042 94.5004 41.4229 85.5135 41.4229 85.5135L62.855 87.1183Z" fill="#E6E6E6"/>
<path d="M57.7812 77.0145C65.8722 77.0145 72.4312 70.3351 72.4312 62.0958C72.4312 53.8564 65.8722 47.1771 57.7812 47.1771C49.6902 47.1771 43.1311 53.8564 43.1311 62.0958C43.1311 70.3351 49.6902 77.0145 57.7812 77.0145Z" fill="#FFB6B6"/>
<path d="M57.0965 90.6199C57.0965 90.6199 59.2887 72.9559 59.6767 67.8192C60.0647 62.6824 67.1851 54.6624 67.1851 54.6624L72.2294 58.8113C72.2294 58.8113 76.4976 58.8113 73.5874 52.4891C70.6773 46.1669 65.245 45.1791 65.245 45.1791C65.245 45.1791 64.6629 36.8812 54.5744 37.869C44.4858 38.8569 40.0236 47.1548 40.0236 47.1548C40.0236 47.1548 39.4415 36.6836 33.0392 44.3888C26.6368 52.094 22.9506 55.2551 29.741 57.8235C36.5314 60.3919 41.5756 58.4162 41.5756 58.4162C41.5756 58.4162 34.9793 59.7992 36.1433 64.5408C37.3074 69.2824 20.8165 90.8174 28.3829 93.1882C35.9493 95.5591 52.8283 101.289 54.7684 97.5347C56.7085 93.7809 57.0965 90.6199 57.0965 90.6199Z" fill="#2F2E41"/>
<path d="M117.487 197.19C120.284 194.825 119.592 189.28 115.942 184.805C114.345 182.846 112.445 181.417 110.579 180.628L108.449 178.081L80.9569 142.393C80.9569 142.393 65.8611 106.996 61.3505 103.148C56.84 99.299 51.48 101.237 51.48 101.237L47.2673 106.454L72.8435 155.916L99.2095 183.393L102.768 187.235C103.187 189.247 104.218 191.411 105.816 193.37C109.465 197.845 114.691 199.555 117.487 197.19Z" fill="#FFB6B6"/>
<path d="M45.6711 98.4933C45.6711 98.4933 52.4012 134.059 60.0595 139.302L75.3205 127.184C75.3205 127.184 76.656 127.125 74.1704 124.266C71.6848 121.407 72.3212 115.267 72.3212 115.267C72.3212 115.267 73.4396 116.741 71.006 114.695C68.5723 112.65 70.8379 98.5811 70.8379 98.5811L45.6711 98.4933Z" fill="#E6E6E6"/>
<path d="M156.823 245.226C156.502 245.226 156.212 244.999 156.142 244.666L155.375 241.037C154.248 235.7 149.72 231.803 144.364 231.559C139.402 231.333 134.804 234.326 132.92 239.003L130.995 243.781C130.849 244.145 130.443 244.317 130.085 244.169C129.729 244.02 129.558 243.605 129.705 243.242L131.63 238.464C133.737 233.233 138.874 229.893 144.427 230.14C150.415 230.412 155.478 234.77 156.739 240.738L157.506 244.367C157.587 244.75 157.347 245.128 156.971 245.211C156.922 245.221 156.872 245.226 156.823 245.226Z" fill="#FFB6B6"/>
<path d="M157.647 256.781C157.627 256.781 157.606 256.78 157.584 256.778L131.769 254.434C131.385 254.399 131.102 254.054 131.136 253.663C131.17 253.272 131.506 252.985 131.892 253.018L157.708 255.363C158.092 255.398 158.375 255.742 158.341 256.133C158.309 256.503 158.005 256.781 157.647 256.781Z" fill="#FFB6B6"/>
</g>
<defs>
<clipPath id="clip0_248_3">
<rect width="315.718" height="335.628" fill="white"/>
</clipPath>
</defs>
</svg>
